<?xml version="1.0" encoding="UTF-8"?>
<!DOCTYPE svg PUBLIC "-//W3C//DTD SVG 1.1//EN" "http://www.w3.org/Graphics/SVG/1.1/DTD/svg11.dtd">
<svg xmlns="http://www.w3.org/2000/svg" version="1.1" width="191px" height="180px" style="shape-rendering:geometricPrecision; text-rendering:geometricPrecision; image-rendering:optimizeQuality; fill-rule:evenodd; clip-rule:evenodd" xmlns:xlink="http://www.w3.org/1999/xlink">
<g><path style="opacity:1" fill="#fefefe" d="M -0.5,-0.5 C 63.1667,-0.5 126.833,-0.5 190.5,-0.5C 190.5,59.5 190.5,119.5 190.5,179.5C 126.833,179.5 63.1667,179.5 -0.5,179.5C -0.5,119.5 -0.5,59.5 -0.5,-0.5 Z"/></g>
<g><path style="opacity:1" fill="#8ca69d" d="M 175.5,15.5 C 175.832,56.6701 175.499,97.6701 174.5,138.5C 174.5,97.5 174.5,56.5 174.5,15.5C 170.598,15.6905 166.931,16.6905 163.5,18.5C 165.83,15.4318 168.997,13.7651 173,13.5C 174.376,13.6842 175.209,14.3509 175.5,15.5 Z"/></g>
<g><path style="opacity:1" fill="#bacbc5" d="M 73.5,15.5 C 73.5,15.1667 73.5,14.8333 73.5,14.5C 78.3834,16.524 83.3834,18.3574 88.5,20C 90.3187,20.7403 91.6521,21.9069 92.5,23.5C 85.8482,21.5711 79.5149,18.9044 73.5,15.5 Z"/></g>
<g><path style="opacity:1" fill="#d2d5d5" d="M 175.5,15.5 C 176.117,15.6107 176.617,15.944 177,16.5C 177.5,57.4986 177.667,98.4986 177.5,139.5C 176.5,139.5 175.5,139.5 174.5,139.5C 174.5,139.167 174.5,138.833 174.5,138.5C 175.499,97.6701 175.832,56.6701 175.5,15.5 Z"/></g>
<g><path style="opacity:1" fill="#7c9c91" d="M 73.5,14.5 C 73.5,14.8333 73.5,15.1667 73.5,15.5C 71.5853,15.2155 69.9187,15.5489 68.5,16.5C 65.3758,18.274 62.0425,19.6073 58.5,20.5C 61.6581,18.1964 64.9915,16.0297 68.5,14C 70.3869,13.2204 72.0536,13.3871 73.5,14.5 Z"/></g>
<g><path style="opacity:1" fill="#487a68" d="M 68.5,16.5 C 69.9187,15.5489 71.5853,15.2155 73.5,15.5C 79.5149,18.9044 85.8482,21.5711 92.5,23.5C 94.3617,26.764 93.5284,28.764 90,29.5C 86.0913,28.3842 82.5913,26.7176 79.5,24.5C 78.0813,23.5489 76.4147,23.2155 74.5,23.5C 74.5,31.8333 74.5,40.1667 74.5,48.5C 73.1745,44.5549 72.5079,40.2216 72.5,35.5C 72.6667,31.1667 72.8333,26.8333 73,22.5C 73.7504,21.8742 74.5838,21.3742 75.5,21C 74.6198,19.6439 74.2865,18.1439 74.5,16.5C 72.5,16.5 70.5,16.5 68.5,16.5 Z"/></g>
<g><path style="opacity:1" fill="#3d715f" d="M 174.5,138.5 C 171.753,138.813 169.086,138.48 166.5,137.5C 168.288,136.717 169.288,135.384 169.5,133.5C 169.833,96.494 169.5,59.494 168.5,22.5C 167.583,23.1272 166.583,23.4606 165.5,23.5C 162.318,23.5732 159.318,24.0732 156.5,25C 158.729,22.5997 161.063,20.433 163.5,18.5C 166.931,16.6905 170.598,15.6905 174.5,15.5C 174.5,56.5 174.5,97.5 174.5,138.5 Z"/></g>
<g><path style="opacity:1" fill="#fafbfb" d="M 64.5,55.5 C 64.8333,55.5 65.1667,55.5 65.5,55.5C 67.491,81.1452 68.1576,107.145 67.5,133.5C 65.375,135.067 63.0416,136.4 60.5,137.5C 56.7213,137.887 53.7213,139.553 51.5,142.5C 47.8701,143.641 44.2035,144.808 40.5,146C 39.944,146.383 39.6107,146.883 39.5,147.5C 35.434,148.368 31.7673,150.034 28.5,152.5C 27.1667,152.5 25.8333,152.5 24.5,152.5C 24.5,116.167 24.5,79.8333 24.5,43.5C 24.5,43.1667 24.5,42.8333 24.5,42.5C 26.7982,40.5393 29.4649,39.5393 32.5,39.5C 37.8334,37.7299 42.8334,35.3966 47.5,32.5C 47.8333,31.8333 48.1667,31.1667 48.5,30.5C 52.5817,29.9211 56.2484,28.5878 59.5,26.5C 59.8417,25.6618 60.5084,25.3284 61.5,25.5C 63.4352,24.8505 65.4352,24.5172 67.5,24.5C 67.5,32.8333 67.5,41.1667 67.5,49.5C 64.4281,49.1826 61.4281,49.5159 58.5,50.5C 57.6258,52.7466 57.2924,55.0799 57.5,57.5C 60.3878,58.0102 62.7211,57.3435 64.5,55.5 Z"/></g>
<g><path style="opacity:1" fill="#adc1ba" d="M 79.5,24.5 C 78.1667,24.5 76.8333,24.5 75.5,24.5C 75.5,32.5 75.5,40.5 75.5,48.5C 75.1667,48.5 74.8333,48.5 74.5,48.5C 74.5,40.1667 74.5,31.8333 74.5,23.5C 76.4147,23.2155 78.0813,23.5489 79.5,24.5 Z"/></g>
<g><path style="opacity:1" fill="#487968" d="M 163.5,18.5 C 161.063,20.433 158.729,22.5997 156.5,25C 159.318,24.0732 162.318,23.5732 165.5,23.5C 163.833,24.8333 162.167,26.1667 160.5,27.5C 159.833,27.5 159.167,27.5 158.5,27.5C 155.728,27.7587 153.395,28.7587 151.5,30.5C 145.024,33.1352 138.69,36.1352 132.5,39.5C 133.234,38.2921 133.567,36.9587 133.5,35.5C 130.545,36.1587 127.545,36.4921 124.5,36.5C 129.341,33.5788 134.341,30.9121 139.5,28.5C 146.277,26.5748 152.61,23.9081 158.5,20.5C 159.635,18.7868 161.302,18.1201 163.5,18.5 Z"/></g>
<g><path style="opacity:1" fill="#fafbfb" d="M 168.5,133.5 C 161.248,136.605 154.248,140.272 147.5,144.5C 143.368,144.746 140.035,146.413 137.5,149.5C 134.345,149.977 131.345,150.977 128.5,152.5C 126.535,145.24 125.868,137.573 126.5,129.5C 127.791,129.737 128.791,129.404 129.5,128.5C 132.019,126.359 132.019,124.359 129.5,122.5C 129.5,122.167 129.5,121.833 129.5,121.5C 128.791,120.596 127.791,120.263 126.5,120.5C 126.5,94.8333 126.5,69.1667 126.5,43.5C 128.167,42.1667 129.833,40.8333 131.5,39.5C 131.833,39.5 132.167,39.5 132.5,39.5C 138.69,36.1352 145.024,33.1352 151.5,30.5C 154.272,30.2413 156.605,29.2413 158.5,27.5C 159.167,27.5 159.833,27.5 160.5,27.5C 163.09,27.0818 165.423,26.0818 167.5,24.5C 168.5,60.8272 168.833,97.1606 168.5,133.5 Z"/></g>
<g><path style="opacity:1" fill="#fbfbfb" d="M 92.5,23.5 C 95.8758,25.2589 99.2092,26.9255 102.5,28.5C 100.621,27.6586 98.6208,27.3253 96.5,27.5C 96.5,29.1667 96.5,30.8333 96.5,32.5C 97.6222,33.9473 99.1222,34.9473 101,35.5C 101.333,34.8333 101.667,34.1667 102,33.5C 102.422,35.4257 103.589,36.4257 105.5,36.5C 106.5,37.1667 107.5,37.8333 108.5,38.5C 110.71,40.6206 113.377,42.2873 116.5,43.5C 116.833,56.5 117.167,69.5 117.5,82.5C 117.499,95.8509 116.833,108.851 115.5,121.5C 112.877,119.735 109.877,119.068 106.5,119.5C 106.5,120.833 106.5,122.167 106.5,123.5C 106.539,124.583 106.873,125.583 107.5,126.5C 110.709,127.787 113.875,127.787 117,126.5C 117.832,135.186 117.665,143.853 116.5,152.5C 114.827,150.914 112.827,150.247 110.5,150.5C 110.158,149.662 109.492,149.328 108.5,149.5C 105.075,147.435 101.408,145.769 97.5,144.5C 95.8333,143.833 94.1667,143.167 92.5,142.5C 88.597,138.753 83.9304,136.753 78.5,136.5C 77.3065,135.728 76.3065,134.728 75.5,133.5C 75.5,107.833 75.5,82.1667 75.5,56.5C 81.1084,57.4397 83.1084,55.4397 81.5,50.5C 79.7028,49.2702 77.7028,48.6036 75.5,48.5C 75.5,40.5 75.5,32.5 75.5,24.5C 76.8333,24.5 78.1667,24.5 79.5,24.5C 82.5913,26.7176 86.0913,28.3842 90,29.5C 93.5284,28.764 94.3617,26.764 92.5,23.5 Z"/></g>
<g><path style="opacity:1" fill="#5b8677" d="M 58.5,20.5 C 55.8726,23.2547 52.8726,25.588 49.5,27.5C 50.1667,27.8333 50.8333,28.1667 51.5,28.5C 53.9017,26.951 56.5683,26.2843 59.5,26.5C 56.2484,28.5878 52.5817,29.9211 48.5,30.5C 48.38,29.4138 47.7133,28.7472 46.5,28.5C 41.5963,29.1391 36.9297,30.4725 32.5,32.5C 36.9153,29.3993 41.582,26.566 46.5,24C 50.6509,23.0759 54.6509,21.9092 58.5,20.5 Z"/></g>
<g><path style="opacity:1" fill="#c4d2cd" d="M 158.5,20.5 C 152.61,23.9081 146.277,26.5748 139.5,28.5C 145.35,25.0928 151.683,22.4261 158.5,20.5 Z"/></g>
<g><path style="opacity:1" fill="#a3bbb3" d="M 68.5,22.5 C 68.5,31.8333 68.5,41.1667 68.5,50.5C 65.4281,50.1826 62.4281,50.5159 59.5,51.5C 58.6906,53.0709 58.3573,54.7376 58.5,56.5C 60.5648,56.4828 62.5648,56.1495 64.5,55.5C 62.7211,57.3435 60.3878,58.0102 57.5,57.5C 57.2924,55.0799 57.6258,52.7466 58.5,50.5C 61.4281,49.5159 64.4281,49.1826 67.5,49.5C 67.5,41.1667 67.5,32.8333 67.5,24.5C 65.4352,24.5172 63.4352,24.8505 61.5,25.5C 63.3204,23.5516 65.6538,22.5516 68.5,22.5 Z"/></g>
<g><path style="opacity:1" fill="#8aa79d" d="M 158.5,27.5 C 156.605,29.2413 154.272,30.2413 151.5,30.5C 153.395,28.7587 155.728,27.7587 158.5,27.5 Z"/></g>
<g><path style="opacity:1" fill="#558372" d="M 102.5,28.5 C 102.241,32.0681 100.241,33.4015 96.5,32.5C 96.5,30.8333 96.5,29.1667 96.5,27.5C 98.6208,27.3253 100.621,27.6586 102.5,28.5 Z"/></g>
<g><path style="opacity:1" fill="#bdccc7" d="M 102.5,28.5 C 103.268,29.2625 103.768,30.2625 104,31.5C 105.062,30.9032 106.228,30.5698 107.5,30.5C 109.355,30.3402 110.688,31.0069 111.5,32.5C 109.545,31.6765 107.545,31.5099 105.5,32C 104.272,33.4902 104.272,34.9902 105.5,36.5C 103.589,36.4257 102.422,35.4257 102,33.5C 101.667,34.1667 101.333,34.8333 101,35.5C 99.1222,34.9473 97.6222,33.9473 96.5,32.5C 100.241,33.4015 102.241,32.0681 102.5,28.5 Z"/></g>
<g><path style="opacity:1" fill="#326a57" d="M 68.5,16.5 C 70.5,16.5 72.5,16.5 74.5,16.5C 74.2865,18.1439 74.6198,19.6439 75.5,21C 74.5838,21.3742 73.7504,21.8742 73,22.5C 72.8333,26.8333 72.6667,31.1667 72.5,35.5C 72.5079,40.2216 73.1745,44.5549 74.5,48.5C 75.7898,49.9348 77.4565,50.9348 79.5,51.5C 77.0306,52.0361 74.864,53.0361 73,54.5C 72.6667,81.8333 72.3333,109.167 72,136.5C 70.4006,138.036 68.5672,138.536 66.5,138C 68.0368,136.89 68.7035,135.39 68.5,133.5C 69.8333,96.5 69.8333,59.5 68.5,22.5C 65.6538,22.5516 63.3204,23.5516 61.5,25.5C 60.5084,25.3284 59.8417,25.6618 59.5,26.5C 56.5683,26.2843 53.9017,26.951 51.5,28.5C 50.8333,28.1667 50.1667,27.8333 49.5,27.5C 52.8726,25.588 55.8726,23.2547 58.5,20.5C 62.0425,19.6073 65.3758,18.274 68.5,16.5 Z"/></g>
<g><path style="opacity:1" fill="#376d5b" d="M 111.5,32.5 C 113.696,33.8119 116.03,34.9786 118.5,36C 120.473,36.4955 122.473,36.6621 124.5,36.5C 127.545,36.4921 130.545,36.1587 133.5,35.5C 133.567,36.9587 133.234,38.2921 132.5,39.5C 132.167,39.5 131.833,39.5 131.5,39.5C 129.009,39.8288 126.843,40.8288 125,42.5C 124.5,69.1646 124.333,95.8313 124.5,122.5C 126.167,122.5 127.833,122.5 129.5,122.5C 129.5,123.833 129.5,125.167 129.5,126.5C 127.856,126.286 126.356,126.62 125,127.5C 124.5,136.494 124.334,145.494 124.5,154.5C 126.292,155.309 128.292,155.809 130.5,156C 126.633,159.592 121.966,161.092 116.5,160.5C 116.5,159.833 116.167,159.5 115.5,159.5C 115.586,158.504 115.252,157.671 114.5,157C 116.175,156.015 117.842,155.181 119.5,154.5C 120.161,116.485 119.494,78.8185 117.5,41.5C 114.407,40.7875 111.407,39.7875 108.5,38.5C 107.5,37.8333 106.5,37.1667 105.5,36.5C 104.272,34.9902 104.272,33.4902 105.5,32C 107.545,31.5099 109.545,31.6765 111.5,32.5 Z"/></g>
<g><path style="opacity:1" fill="#becdc8" d="M 47.5,32.5 C 42.8334,35.3966 37.8334,37.7299 32.5,39.5C 35.7869,36.8828 39.4536,34.7161 43.5,33C 44.7932,32.51 46.1266,32.3433 47.5,32.5 Z"/></g>
<g><path style="opacity:1" fill="#85a599" d="M 30.5,32.5 C 30.0472,33.4584 29.3805,34.2917 28.5,35C 24.6262,36.1158 20.9596,37.6158 17.5,39.5C 18.0065,38.1411 19.0065,37.1411 20.5,36.5C 23.9651,35.3484 27.2984,34.015 30.5,32.5 Z"/></g>
<g><path style="opacity:1" fill="#d4d9d8" d="M 169.5,133.5 C 169.167,133.5 168.833,133.5 168.5,133.5C 168.833,97.1606 168.5,60.8272 167.5,24.5C 165.423,26.0818 163.09,27.0818 160.5,27.5C 162.167,26.1667 163.833,24.8333 165.5,23.5C 166.583,23.4606 167.583,23.1272 168.5,22.5C 169.5,59.494 169.833,96.494 169.5,133.5 Z"/></g>
<g><path style="opacity:1" fill="#366c59" d="M 48.5,30.5 C 48.1667,31.1667 47.8333,31.8333 47.5,32.5C 46.1266,32.3433 44.7932,32.51 43.5,33C 39.4536,34.7161 35.7869,36.8828 32.5,39.5C 29.4649,39.5393 26.7982,40.5393 24.5,42.5C 22.5062,79.4851 21.8395,116.818 22.5,154.5C 24.099,154.768 25.4324,154.434 26.5,153.5C 27.4916,153.672 28.1583,153.338 28.5,152.5C 31.7673,150.034 35.434,148.368 39.5,147.5C 42.0961,146.735 44.7628,146.401 47.5,146.5C 47.6495,147.552 47.4828,148.552 47,149.5C 45.2714,149.974 44.1047,150.974 43.5,152.5C 37.8342,153.522 32.8342,155.855 28.5,159.5C 25.0504,160.91 21.3837,161.576 17.5,161.5C 17.5,120.833 17.5,80.1667 17.5,39.5C 20.9596,37.6158 24.6262,36.1158 28.5,35C 29.3805,34.2917 30.0472,33.4584 30.5,32.5C 31.1667,32.5 31.8333,32.5 32.5,32.5C 36.9297,30.4725 41.5963,29.1391 46.5,28.5C 47.7133,28.7472 48.38,29.4138 48.5,30.5 Z"/></g>
<g><path style="opacity:1" fill="#c4d2cd" d="M 126.5,43.5 C 126.5,69.1667 126.5,94.8333 126.5,120.5C 127.791,120.263 128.791,120.596 129.5,121.5C 128.167,121.5 126.833,121.5 125.5,121.5C 125.169,95.328 125.502,69.328 126.5,43.5 Z"/></g>
<g><path style="opacity:1" fill="#89a69c" d="M 117.5,41.5 C 119.494,78.8185 120.161,116.485 119.5,154.5C 118.209,154.737 117.209,154.404 116.5,153.5C 117.833,135.346 118.5,116.846 118.5,98C 118.494,79.0947 118.161,60.2614 117.5,41.5 Z"/></g>
<g><path style="opacity:1" fill="#a1b8b0" d="M 152.5,55.5 C 154.461,53.2018 155.461,50.5351 155.5,47.5C 153.708,47.366 152.042,47.6993 150.5,48.5C 152.193,46.2336 154.36,45.9003 157,47.5C 157.438,51.2347 155.938,53.9014 152.5,55.5 Z"/></g>
<g><path style="opacity:1" fill="#457b69" d="M 68.5,22.5 C 69.8333,59.5 69.8333,96.5 68.5,133.5C 68.5,107.167 68.5,80.8333 68.5,54.5C 67.209,54.2627 66.209,54.596 65.5,55.5C 65.1667,55.5 64.8333,55.5 64.5,55.5C 62.5648,56.1495 60.5648,56.4828 58.5,56.5C 58.3573,54.7376 58.6906,53.0709 59.5,51.5C 62.4281,50.5159 65.4281,50.1826 68.5,50.5C 68.5,41.1667 68.5,31.8333 68.5,22.5 Z"/></g>
<g><path style="opacity:1" fill="#3e7260" d="M 150.5,48.5 C 152.042,47.6993 153.708,47.366 155.5,47.5C 155.461,50.5351 154.461,53.2018 152.5,55.5C 152.15,58.4534 153.15,60.7867 155.5,62.5C 155.5,63.8333 155.5,65.1667 155.5,66.5C 152.409,65.4565 149.409,64.1232 146.5,62.5C 144.179,63.4437 142.512,65.1103 141.5,67.5C 138.09,67.6162 136.756,65.9496 137.5,62.5C 138.985,60.8379 140.318,59.0046 141.5,57C 139.715,54.6028 138.049,52.1028 136.5,49.5C 137.096,46.7536 138.763,45.9202 141.5,47C 143.056,48.599 144.723,50.099 146.5,51.5C 148.261,50.9649 149.594,49.9649 150.5,48.5 Z"/></g>
<g><path style="opacity:1" fill="#a9c0b8" d="M 65.5,55.5 C 66.209,54.596 67.209,54.2627 68.5,54.5C 68.5,80.8333 68.5,107.167 68.5,133.5C 68.1667,133.5 67.8333,133.5 67.5,133.5C 68.1576,107.145 67.491,81.1452 65.5,55.5 Z"/></g>
<g><path style="opacity:1" fill="#adc1b9" d="M 81.5,50.5 C 83.1084,55.4397 81.1084,57.4397 75.5,56.5C 75.5,82.1667 75.5,107.833 75.5,133.5C 74.5022,107.339 74.1688,81.0053 74.5,54.5C 76.8333,54.5 79.1667,54.5 81.5,54.5C 81.5,53.1667 81.5,51.8333 81.5,50.5 Z"/></g>
<g><path style="opacity:1" fill="#87a59a" d="M 91.5,56.5 C 89.9582,55.6993 88.2915,55.366 86.5,55.5C 86.366,57.2915 86.6993,58.9582 87.5,60.5C 84.7564,59.9283 83.9231,58.2617 85,55.5C 87.6957,52.7927 89.8623,53.126 91.5,56.5 Z"/></g>
<g><path style="opacity:1" fill="#427564" d="M 52.5,65.5 C 50.8333,65.5 49.1667,65.5 47.5,65.5C 47.1706,62.7718 47.8372,60.4385 49.5,58.5C 50.7079,57.7659 52.0413,57.4326 53.5,57.5C 53.5987,60.2372 53.2653,62.9039 52.5,65.5 Z"/></g>
<g><path style="opacity:1" fill="#457866" d="M 91.5,56.5 C 93.2484,58.1599 93.7484,60.1599 93,62.5C 90.3911,63.9085 88.5578,63.2418 87.5,60.5C 86.6993,58.9582 86.366,57.2915 86.5,55.5C 88.2915,55.366 89.9582,55.6993 91.5,56.5 Z"/></g>
<g><path style="opacity:1" fill="#85a499" d="M 52.5,65.5 C 53.2653,62.9039 53.5987,60.2372 53.5,57.5C 52.0413,57.4326 50.7079,57.7659 49.5,58.5C 51.4401,55.9588 53.6068,55.9588 56,58.5C 56.009,61.35 54.8423,63.6833 52.5,65.5 Z"/></g>
<g><path style="opacity:1" fill="#7ea094" d="M 155.5,62.5 C 156.451,63.9187 156.784,65.5853 156.5,67.5C 152.611,67.624 149.278,66.2906 146.5,63.5C 145.234,65.4039 143.567,66.7372 141.5,67.5C 142.512,65.1103 144.179,63.4437 146.5,62.5C 149.409,64.1232 152.409,65.4565 155.5,66.5C 155.5,65.1667 155.5,63.8333 155.5,62.5 Z"/></g>
<g><path style="opacity:1" fill="#75988c" d="M 97.5,66.5 C 99.6268,69.3728 99.9601,72.3728 98.5,75.5C 98.3259,73.139 97.9926,70.8056 97.5,68.5C 96.1667,68.5 94.8333,68.5 93.5,68.5C 93.5,70.5 93.5,72.5 93.5,74.5C 92.3659,72.0336 92.1993,69.367 93,66.5C 94.6155,65.1991 96.1155,65.1991 97.5,66.5 Z"/></g>
<g><path style="opacity:1" fill="#aabfb8" d="M 137.5,62.5 C 136.756,65.9496 138.09,67.6162 141.5,67.5C 140.116,68.8009 138.616,68.8009 137,67.5C 136.22,65.6131 136.387,63.9464 137.5,62.5 Z"/></g>
<g><path style="opacity:1" fill="#3d715f" d="M 98.5,75.5 C 96.7085,75.634 95.0418,75.3007 93.5,74.5C 93.5,72.5 93.5,70.5 93.5,68.5C 94.8333,68.5 96.1667,68.5 97.5,68.5C 97.9926,70.8056 98.3259,73.139 98.5,75.5 Z"/></g>
<g><path style="opacity:1" fill="#356d5a" d="M 44.5,70.5 C 45.8221,70.33 46.9887,70.6634 48,71.5C 48.4955,73.4727 48.6621,75.4727 48.5,77.5C 47.1667,77.5 45.8333,77.5 44.5,77.5C 44.5,75.1667 44.5,72.8333 44.5,70.5 Z"/></g>
<g><path style="opacity:1" fill="#85a59b" d="M 44.5,70.5 C 45.9187,69.5489 47.5853,69.2155 49.5,69.5C 49.8064,72.3854 49.4731,75.0521 48.5,77.5C 48.6621,75.4727 48.4955,73.4727 48,71.5C 46.9887,70.6634 45.8221,70.33 44.5,70.5 Z"/></g>
<g><path style="opacity:1" fill="#c1d1cb" d="M 97.5,66.5 C 98.4959,66.4142 99.3292,66.7476 100,67.5C 100.821,70.5541 100.655,73.5541 99.5,76.5C 96.495,78.2587 94.495,77.5921 93.5,74.5C 95.0418,75.3007 96.7085,75.634 98.5,75.5C 99.9601,72.3728 99.6268,69.3728 97.5,66.5 Z"/></g>
<g><path style="opacity:1" fill="#678c80" d="M 44.5,70.5 C 44.5,72.8333 44.5,75.1667 44.5,77.5C 45.8333,77.5 47.1667,77.5 48.5,77.5C 47.2486,79.561 45.5819,79.8943 43.5,78.5C 42.0353,75.5162 42.3686,72.8495 44.5,70.5 Z"/></g>
<g><path style="opacity:1" fill="#457866" d="M 149.5,82.5 C 147.545,83.9302 145.879,83.5969 144.5,81.5C 144.5,79.5 144.5,77.5 144.5,75.5C 146.167,75.5 147.833,75.5 149.5,75.5C 149.5,77.8333 149.5,80.1667 149.5,82.5 Z"/></g>
<g><path style="opacity:1" fill="#7d9e93" d="M 149.5,82.5 C 149.5,80.1667 149.5,77.8333 149.5,75.5C 147.833,75.5 146.167,75.5 144.5,75.5C 144.5,77.5 144.5,79.5 144.5,81.5C 143.203,79.3066 143.203,76.9732 144.5,74.5C 146.371,73.233 148.204,73.233 150,74.5C 150.801,77.367 150.634,80.0336 149.5,82.5 Z"/></g>
<g><path style="opacity:1" fill="#699184" d="M 24.5,42.5 C 24.5,42.8333 24.5,43.1667 24.5,43.5C 23.5015,79.9962 23.1682,116.663 23.5,153.5C 24.5,153.5 25.5,153.5 26.5,153.5C 25.4324,154.434 24.099,154.768 22.5,154.5C 21.8395,116.818 22.5062,79.4851 24.5,42.5 Z"/></g>
<g><path style="opacity:1" fill="#588575" d="M 94.5,80.5 C 96.1439,80.2865 97.6439,80.6198 99,81.5C 99.498,84.4816 99.6646,87.4816 99.5,90.5C 97.5328,90.7394 95.6995,90.4061 94,89.5C 93.3658,86.4453 93.5325,83.4453 94.5,80.5 Z"/></g>
<g><path style="opacity:1" fill="#84a297" d="M 131.5,39.5 C 129.833,40.8333 128.167,42.1667 126.5,43.5C 125.502,69.328 125.169,95.328 125.5,121.5C 126.833,121.5 128.167,121.5 129.5,121.5C 129.5,121.833 129.5,122.167 129.5,122.5C 127.833,122.5 126.167,122.5 124.5,122.5C 124.333,95.8313 124.5,69.1646 125,42.5C 126.843,40.8288 129.009,39.8288 131.5,39.5 Z"/></g>
<g><path style="opacity:1" fill="#9bb6ad" d="M 48.5,85.5 C 49.1558,86.6216 49.4892,87.9549 49.5,89.5C 49.4146,91.3328 48.7479,92.6661 47.5,93.5C 48.388,90.9455 48.7214,88.2788 48.5,85.5 Z"/></g>
<g><path style="opacity:1" fill="#527f70" d="M 48.5,85.5 C 48.7214,88.2788 48.388,90.9455 47.5,93.5C 43.8664,93.8436 42.1997,92.1769 42.5,88.5C 42.9948,83.6014 44.9948,82.6014 48.5,85.5 Z"/></g>
<g><path style="opacity:1" fill="#80a195" d="M 144.5,96.5 C 141.769,90.358 143.769,87.6913 150.5,88.5C 150.665,91.5184 150.498,94.5184 150,97.5C 147.661,99.0779 145.828,98.7446 144.5,96.5 Z"/></g>
<g><path style="opacity:1" fill="#3a705d" d="M 144.5,96.5 C 144.338,94.4727 144.505,92.4727 145,90.5C 146.333,89.1667 147.667,89.1667 149,90.5C 149.495,92.4727 149.662,94.4727 149.5,96.5C 147.833,96.5 146.167,96.5 144.5,96.5 Z"/></g>
<g><path style="opacity:1" fill="#8eaaa0" d="M 99.5,103.5 C 99.6621,101.473 99.4955,99.4727 99,97.5C 97.6667,96.1667 96.3333,96.1667 95,97.5C 94.5045,99.4727 94.3379,101.473 94.5,103.5C 93.2521,102.666 92.5854,101.333 92.5,99.5C 93.3205,94.3358 95.8205,93.3358 100,96.5C 100.796,99.0385 100.629,101.372 99.5,103.5 Z"/></g>
<g><path style="opacity:1" fill="#427664" d="M 99.5,103.5 C 97.8333,106.167 96.1667,106.167 94.5,103.5C 94.3379,101.473 94.5045,99.4727 95,97.5C 96.3333,96.1667 97.6667,96.1667 99,97.5C 99.4955,99.4727 99.6621,101.473 99.5,103.5 Z"/></g>
<g><path style="opacity:1" fill="#6a8e81" d="M 48.5,99.5 C 47.1667,99.5 45.8333,99.5 44.5,99.5C 44.5,101.833 44.5,104.167 44.5,106.5C 45.8333,106.5 47.1667,106.5 48.5,106.5C 47.4324,107.434 46.099,107.768 44.5,107.5C 43.8826,107.389 43.3826,107.056 43,106.5C 42.3333,104.167 42.3333,101.833 43,99.5C 44.9688,96.8761 46.8022,96.8761 48.5,99.5 Z"/></g>
<g><path style="opacity:1" fill="#376f5c" d="M 48.5,99.5 C 48.5,101.833 48.5,104.167 48.5,106.5C 47.1667,106.5 45.8333,106.5 44.5,106.5C 44.5,104.167 44.5,101.833 44.5,99.5C 45.8333,99.5 47.1667,99.5 48.5,99.5 Z"/></g>
<g><path style="opacity:1" fill="#b4c4bf" d="M 48.5,99.5 C 49.8032,102.355 49.8032,105.355 48.5,108.5C 46.512,110.147 45.1787,109.814 44.5,107.5C 46.099,107.768 47.4324,107.434 48.5,106.5C 48.5,104.167 48.5,101.833 48.5,99.5 Z"/></g>
<g><path style="opacity:1" fill="#80a397" d="M 98.5,109.5 C 97.3586,111.451 97.3586,113.451 98.5,115.5C 97.0532,114.866 96.3866,113.699 96.5,112C 96.6842,110.624 97.3509,109.791 98.5,109.5 Z"/></g>
<g><path style="opacity:1" fill="#cad6d2" d="M 138.5,123.5 C 140.235,121.765 141.568,119.765 142.5,117.5C 141.927,114.915 140.261,113.915 137.5,114.5C 139.042,113.837 140.709,113.17 142.5,112.5C 141.506,109.103 141.84,105.769 143.5,102.5C 145.768,101.456 148.101,101.289 150.5,102C 152.363,108.467 150.029,112.467 143.5,114C 145.207,118.822 143.54,121.989 138.5,123.5 Z"/></g>
<g><path style="opacity:1" fill="#457766" d="M 145.5,102.5 C 149.979,103.96 150.646,106.626 147.5,110.5C 146.264,111.246 144.93,111.579 143.5,111.5C 143.091,108.145 143.758,105.145 145.5,102.5 Z"/></g>
<g><path style="opacity:1" fill="#719689" d="M 44.5,113.5 C 46.1667,113.5 47.8333,113.5 49.5,113.5C 49.5,116.167 49.5,118.833 49.5,121.5C 42.6645,121.815 40.9978,119.148 44.5,113.5 Z"/></g>
<g><path style="opacity:1" fill="#366d5a" d="M 44.5,115.5 C 45.8333,115.5 47.1667,115.5 48.5,115.5C 48.5,116.833 48.5,118.167 48.5,119.5C 47.1667,119.5 45.8333,119.5 44.5,119.5C 44.5,118.167 44.5,116.833 44.5,115.5 Z"/></g>
<g><path style="opacity:1" fill="#4d7e6d" d="M 98.5,109.5 C 103.49,109.78 105.324,112.447 104,117.5C 101.472,118.934 99.6383,118.267 98.5,115.5C 97.3586,113.451 97.3586,111.451 98.5,109.5 Z"/></g>
<g><path style="opacity:1" fill="#487a69" d="M 137.5,114.5 C 140.261,113.915 141.927,114.915 142.5,117.5C 141.568,119.765 140.235,121.765 138.5,123.5C 137.167,123.5 135.833,123.5 134.5,123.5C 133.924,119.888 134.924,116.888 137.5,114.5 Z"/></g>
<g><path style="opacity:1" fill="#a2bab2" d="M 24.5,43.5 C 24.5,79.8333 24.5,116.167 24.5,152.5C 25.8333,152.5 27.1667,152.5 28.5,152.5C 28.1583,153.338 27.4916,153.672 26.5,153.5C 25.5,153.5 24.5,153.5 23.5,153.5C 23.1682,116.663 23.5015,79.9962 24.5,43.5 Z"/></g>
<g><path style="opacity:1" fill="#4c7c6b" d="M 115.5,121.5 C 115.5,123.167 115.5,124.833 115.5,126.5C 111.997,126.871 108.997,125.871 106.5,123.5C 106.5,122.167 106.5,120.833 106.5,119.5C 109.877,119.068 112.877,119.735 115.5,121.5 Z"/></g>
<g><path style="opacity:1" fill="#dde1e0" d="M 108.5,38.5 C 111.407,39.7875 114.407,40.7875 117.5,41.5C 118.161,60.2614 118.494,79.0947 118.5,98C 118.5,116.846 117.833,135.346 116.5,153.5C 114.456,152.492 112.456,151.492 110.5,150.5C 112.827,150.247 114.827,150.914 116.5,152.5C 117.665,143.853 117.832,135.186 117,126.5C 113.875,127.787 110.709,127.787 107.5,126.5C 106.873,125.583 106.539,124.583 106.5,123.5C 108.997,125.871 111.997,126.871 115.5,126.5C 115.5,124.833 115.5,123.167 115.5,121.5C 116.833,108.851 117.499,95.8509 117.5,82.5C 117.167,69.5 116.833,56.5 116.5,43.5C 113.377,42.2873 110.71,40.6206 108.5,38.5 Z"/></g>
<g><path style="opacity:1" fill="#85a398" d="M 129.5,122.5 C 132.019,124.359 132.019,126.359 129.5,128.5C 128.167,128.5 126.833,128.5 125.5,128.5C 124.865,137.234 125.532,145.567 127.5,153.5C 126.791,154.404 125.791,154.737 124.5,154.5C 124.334,145.494 124.5,136.494 125,127.5C 126.356,126.62 127.856,126.286 129.5,126.5C 129.5,125.167 129.5,123.833 129.5,122.5 Z"/></g>
<g><path style="opacity:1" fill="#487968" d="M 74.5,48.5 C 74.8333,48.5 75.1667,48.5 75.5,48.5C 77.7028,48.6036 79.7028,49.2702 81.5,50.5C 81.5,51.8333 81.5,53.1667 81.5,54.5C 79.1667,54.5 76.8333,54.5 74.5,54.5C 74.1688,81.0053 74.5022,107.339 75.5,133.5C 76.3065,134.728 77.3065,135.728 78.5,136.5C 83.0741,138.447 87.7408,140.447 92.5,142.5C 94.1667,143.167 95.8333,143.833 97.5,144.5C 100.486,147.444 104.153,149.111 108.5,149.5C 109.492,149.328 110.158,149.662 110.5,150.5C 112.456,151.492 114.456,152.492 116.5,153.5C 117.209,154.404 118.209,154.737 119.5,154.5C 117.842,155.181 116.175,156.015 114.5,157C 115.252,157.671 115.586,158.504 115.5,159.5C 114.391,159.443 113.391,159.11 112.5,158.5C 104.14,155.603 96.1399,151.936 88.5,147.5C 84.7579,144.357 80.4245,142.357 75.5,141.5C 72.6965,140.362 69.6965,140.195 66.5,141C 63.1411,142.047 60.1411,143.547 57.5,145.5C 53.0437,148.211 48.3771,150.544 43.5,152.5C 44.1047,150.974 45.2714,149.974 47,149.5C 47.4828,148.552 47.6495,147.552 47.5,146.5C 44.7628,146.401 42.0961,146.735 39.5,147.5C 39.6107,146.883 39.944,146.383 40.5,146C 44.2035,144.808 47.8701,143.641 51.5,142.5C 55.2515,142.06 58.2515,140.393 60.5,137.5C 63.0416,136.4 65.375,135.067 67.5,133.5C 67.8333,133.5 68.1667,133.5 68.5,133.5C 68.7035,135.39 68.0368,136.89 66.5,138C 68.5672,138.536 70.4006,138.036 72,136.5C 72.3333,109.167 72.6667,81.8333 73,54.5C 74.864,53.0361 77.0306,52.0361 79.5,51.5C 77.4565,50.9348 75.7898,49.9348 74.5,48.5 Z"/></g>
<g><path style="opacity:1" fill="#bdcdc7" d="M 78.5,136.5 C 83.9304,136.753 88.597,138.753 92.5,142.5C 87.7408,140.447 83.0741,138.447 78.5,136.5 Z"/></g>
<g><path style="opacity:1" fill="#779b8f" d="M 60.5,137.5 C 58.2515,140.393 55.2515,142.06 51.5,142.5C 53.7213,139.553 56.7213,137.887 60.5,137.5 Z"/></g>
<g><path style="opacity:1" fill="#76998d" d="M 75.5,141.5 C 80.4245,142.357 84.7579,144.357 88.5,147.5C 83.9194,145.87 79.5861,143.87 75.5,141.5 Z"/></g>
<g><path style="opacity:1" fill="#c5d2ce" d="M 129.5,128.5 C 128.791,129.404 127.791,129.737 126.5,129.5C 125.868,137.573 126.535,145.24 128.5,152.5C 128.5,153.167 128.167,153.5 127.5,153.5C 125.532,145.567 124.865,137.234 125.5,128.5C 126.833,128.5 128.167,128.5 129.5,128.5 Z"/></g>
<g><path style="opacity:1" fill="#457766" d="M 168.5,133.5 C 168.833,133.5 169.167,133.5 169.5,133.5C 169.288,135.384 168.288,136.717 166.5,137.5C 169.086,138.48 171.753,138.813 174.5,138.5C 174.5,138.833 174.5,139.167 174.5,139.5C 166.24,142.299 158.24,145.633 150.5,149.5C 145.614,150.899 141.281,153.232 137.5,156.5C 135.486,156.392 133.82,157.058 132.5,158.5C 130.287,158.848 128.287,159.681 126.5,161C 122.973,161.808 119.64,161.641 116.5,160.5C 121.966,161.092 126.633,159.592 130.5,156C 128.292,155.809 126.292,155.309 124.5,154.5C 125.791,154.737 126.791,154.404 127.5,153.5C 128.167,153.5 128.5,153.167 128.5,152.5C 131.345,150.977 134.345,149.977 137.5,149.5C 141.329,148.633 144.663,146.967 147.5,144.5C 154.248,140.272 161.248,136.605 168.5,133.5 Z"/></g>
<g><path style="opacity:1" fill="#88a79c" d="M 75.5,141.5 C 69.2734,141.797 63.2734,143.131 57.5,145.5C 60.1411,143.547 63.1411,142.047 66.5,141C 69.6965,140.195 72.6965,140.362 75.5,141.5 Z"/></g>
<g><path style="opacity:1" fill="#9fb6ae" d="M 97.5,144.5 C 101.408,145.769 105.075,147.435 108.5,149.5C 104.153,149.111 100.486,147.444 97.5,144.5 Z"/></g>
<g><path style="opacity:1" fill="#789c90" d="M 147.5,144.5 C 144.663,146.967 141.329,148.633 137.5,149.5C 140.035,146.413 143.368,144.746 147.5,144.5 Z"/></g>
<g><path style="opacity:1" fill="#adc1ba" d="M 150.5,149.5 C 146.653,152.593 142.32,154.926 137.5,156.5C 141.281,153.232 145.614,150.899 150.5,149.5 Z"/></g>
<g><path style="opacity:1" fill="#a1b8b0" d="M 43.5,152.5 C 39.0738,155.768 34.0738,158.101 28.5,159.5C 32.8342,155.855 37.8342,153.522 43.5,152.5 Z"/></g>
<g><path style="opacity:1" fill="#9db1aa" d="M 28.5,159.5 C 26.114,161.176 23.4474,162.51 20.5,163.5C 18.9623,163.547 17.9623,162.88 17.5,161.5C 21.3837,161.576 25.0504,160.91 28.5,159.5 Z"/></g>
<g><path style="opacity:1" fill="#b5c3be" d="M 112.5,158.5 C 113.391,159.11 114.391,159.443 115.5,159.5C 116.167,159.5 116.5,159.833 116.5,160.5C 119.64,161.641 122.973,161.808 126.5,161C 128.287,159.681 130.287,158.848 132.5,158.5C 125.705,165.076 119.039,165.076 112.5,158.5 Z"/></g>
</svg>
