<svg version="1.1" id="Layer_1" xmlns="http://www.w3.org/2000/svg" xmlns:xlink="http://www.w3.org/1999/xlink" x="0px" y="0px"
	 width="100%" viewBox="0 0 211 193" enable-background="new 0 0 211 193" xml:space="preserve">
<path fill="#000000" opacity="1.000000" stroke="none" 
	d="
M129.000000,194.000000 
	C86.000000,194.000000 43.500004,194.000000 1.000006,194.000000 
	C1.000004,129.666672 1.000004,65.333344 1.000002,1.000014 
	C71.333321,1.000010 141.666641,1.000010 211.999969,1.000005 
	C211.999985,65.333321 211.999985,129.666641 212.000000,193.999969 
	C184.500000,194.000000 157.000000,194.000000 129.000000,194.000000 
M197.886841,40.087318 
	C197.921173,35.265793 198.116226,30.436874 197.895081,25.627090 
	C197.825806,24.120626 196.635605,22.665699 195.143417,21.072399 
	C193.558411,21.337841 191.827042,21.280622 190.412689,21.922232 
	C182.519653,25.502800 174.703339,29.252504 166.122299,33.003780 
	C160.081833,35.724567 154.041351,38.445354 147.485474,41.147369 
	C147.288895,41.418015 147.092331,41.688663 146.958588,41.969864 
	C146.958588,41.969864 146.936646,41.910053 146.173492,41.983627 
	C144.094131,41.845688 141.948135,41.987850 139.949051,41.512363 
	C135.585785,40.474537 131.297226,39.122608 126.261894,37.951210 
	C123.957878,34.865810 121.317520,32.543747 116.975716,33.189693 
	C113.981857,27.617876 107.856056,27.494217 102.358269,24.819979 
	C95.829987,19.921585 89.333443,19.815645 82.139099,25.012852 
	C80.484100,25.682215 78.772469,26.239243 77.183861,27.040276 
	C70.088005,30.618279 63.027252,34.265915 55.191734,37.978447 
	C50.780220,39.987404 46.368710,41.996361 41.177723,44.122028 
	C40.481705,45.950581 39.189407,47.775932 39.179573,49.608170 
	C39.043213,75.005806 39.057930,100.404419 39.089138,125.802727 
	C39.106468,139.908203 39.223114,154.013550 39.209179,168.913162 
	C40.216766,172.961258 43.308907,171.116394 45.016922,170.368118 
	C55.470642,165.788269 65.771133,160.858688 76.852997,155.982529 
	C85.875893,151.577423 94.793678,145.837860 104.747185,153.959564 
	C105.336708,154.440598 106.244949,154.531021 107.639458,155.144058 
	C115.732437,158.775146 123.825417,162.406235 132.275192,166.654724 
	C139.636124,171.988876 146.764526,171.300079 154.578033,166.996552 
	C162.399918,162.688370 170.924393,159.674118 179.025681,155.848694 
	C184.810165,153.117264 190.404266,149.982605 196.720581,146.934891 
	C197.081558,146.279816 197.442551,145.624725 197.904831,144.041077 
	C197.847900,136.040298 197.790985,128.039520 197.893738,119.113937 
	C197.832840,114.410332 197.771957,109.706734 197.856522,104.075600 
	C197.799835,94.049873 197.743164,84.024147 197.820389,73.066933 
	C197.803436,65.040070 197.786499,57.013199 197.916077,48.112957 
	C197.870926,45.749023 197.825775,43.385094 197.886841,40.087318 
z"/>
<path fill="#356A59" opacity="1.000000" stroke="none" 
	d="
M39.294998,168.118958 
	C39.223114,154.013550 39.106468,139.908203 39.089138,125.802727 
	C39.057930,100.404419 39.043213,75.005806 39.179573,49.608170 
	C39.189407,47.775932 40.481705,45.950581 41.725109,44.278500 
	C46.850609,42.649483 51.428719,40.863995 56.379444,39.043777 
	C66.130287,34.880108 75.508522,30.751167 85.204330,26.509880 
	C90.008385,22.715673 94.631996,22.838213 99.418373,25.814783 
	C100.221748,26.314388 101.219620,26.501234 102.434753,27.001358 
	C105.455917,28.421675 108.258141,29.518892 110.843239,30.996086 
	C111.974136,31.642309 112.661102,33.065430 113.549652,34.135765 
	C112.328819,34.768589 111.107986,35.401413 109.541168,36.027020 
	C107.784767,35.390106 106.374336,34.760403 104.839310,33.796665 
	C102.007523,32.185104 99.300331,30.907578 96.593147,29.630049 
	C96.038773,31.741423 95.484398,33.852798 94.765686,36.343208 
	C94.412994,40.342632 94.276077,43.966610 94.023964,47.582550 
	C93.666840,52.704830 94.190903,57.257072 100.234329,58.898384 
	C100.737175,59.034950 100.989594,60.093575 101.217262,60.482647 
	C98.948433,61.430042 96.992386,62.246822 94.999405,63.527222 
	C94.971756,89.670868 94.981049,115.350899 95.099358,141.345673 
	C96.447655,142.451126 97.686928,143.241837 99.186188,144.262482 
	C102.126900,145.794250 104.765961,147.191818 107.496078,148.380188 
	C115.987305,152.076202 124.513062,155.692917 133.204544,159.594711 
	C135.490982,160.827225 137.598297,161.805420 139.705612,162.783615 
	C140.276291,162.475006 140.846985,162.166412 141.417664,161.857803 
	C140.888885,152.216339 140.360123,142.574860 139.851349,132.732208 
	C139.871368,132.531021 139.917892,132.129364 139.850189,131.843506 
	C139.523117,131.037003 139.263748,130.516357 138.982697,130.014954 
	C138.961014,130.034180 138.911591,130.064423 138.934250,129.764252 
	C138.964615,129.263550 138.972305,129.063019 139.004578,128.645370 
	C139.029175,128.428253 139.144638,128.006760 139.436264,127.770920 
	C140.148758,125.985207 140.931122,124.436539 140.936295,122.885284 
	C141.013550,99.686188 141.031738,76.486496 140.899734,53.287880 
	C140.889786,51.539948 139.637268,49.799088 138.611511,47.950096 
	C134.560242,46.202393 130.859802,44.559540 127.139442,42.564068 
	C127.099998,41.505486 127.080475,40.799519 127.446251,40.077923 
	C131.960251,41.599907 136.010284,43.439011 140.251450,44.545551 
	C142.313919,45.083660 144.733734,44.252232 147.363403,44.001053 
	C154.519333,40.705250 161.303619,37.449177 168.455658,34.135689 
	C174.465317,31.669447 180.067657,29.161318 185.764282,26.889650 
	C189.092697,25.562361 192.571777,24.612846 195.977264,23.910744 
	C195.981873,29.884912 195.992279,35.441719 195.919250,41.360725 
	C195.890945,44.149132 195.946091,46.575340 196.002167,49.470097 
	C196.002045,57.959099 196.000977,65.979553 195.823273,74.372635 
	C195.782776,84.836601 195.918884,94.927933 196.047852,105.483261 
	C196.044601,110.643906 196.048492,115.340553 196.043884,120.495827 
	C195.987518,124.642960 195.939651,128.331467 195.625305,132.209839 
	C195.526474,134.258163 195.694107,136.116608 195.881119,138.395828 
	C195.878235,140.219757 195.855988,141.622910 195.590942,143.174316 
	C194.900543,144.130508 194.452942,144.938431 193.764099,145.822342 
	C193.358536,145.935883 193.194168,145.973465 192.724548,146.056061 
	C191.622528,146.651917 190.825760,147.202774 189.727997,147.829376 
	C189.022720,147.993179 188.618454,148.081223 187.969910,147.980103 
	C187.171539,146.995804 186.617432,146.200638 186.391342,145.264069 
	C188.201019,144.065353 189.682693,143.008057 191.329926,141.582260 
	C191.675323,139.738190 192.010818,138.262695 192.011551,136.787033 
	C192.021484,116.186546 191.985657,95.586037 191.968384,74.518250 
	C191.965042,62.043556 191.954330,50.036137 191.837524,37.948845 
	C191.466232,37.764698 191.219925,37.805161 190.804123,38.003361 
	C190.615784,38.016365 190.238281,38.009315 190.145645,37.609833 
	C190.032227,35.850254 190.011429,34.490162 190.182465,33.231972 
	C190.685242,32.390541 190.996185,31.447206 191.307129,30.503872 
	C189.871765,30.666676 188.436417,30.829481 186.631134,31.031307 
	C173.916336,36.672237 161.549973,42.227619 149.242477,47.910530 
	C146.360336,49.241344 144.117462,51.216908 145.801025,55.413616 
	C145.834656,79.972252 145.874298,104.058685 146.073441,128.434708 
	C147.442963,129.172882 148.652954,129.621475 149.863342,130.432495 
	C149.095139,131.989731 148.244858,133.140915 147.577942,134.389999 
	C146.680801,136.070282 145.303360,137.796982 145.221161,139.554718 
	C144.933517,145.705200 145.051407,151.878494 145.139755,158.041321 
	C145.191895,161.678818 146.504822,163.336777 150.483078,161.523865 
	C157.895798,158.145813 165.438858,155.053726 173.128113,152.118195 
	C174.003586,153.009247 174.678635,153.624756 175.045868,154.431976 
	C171.610123,156.122757 168.578171,157.883636 165.336487,159.072586 
	C154.928986,162.889725 145.638062,173.188171 132.779724,164.667786 
	C124.010445,160.634644 115.505150,156.819489 106.786018,152.739548 
	C101.459305,150.514908 96.154533,146.619156 91.283806,147.101990 
	C85.629959,147.662491 80.357002,152.065262 74.545502,154.860748 
	C65.992043,158.546204 57.882656,162.345810 49.596020,165.708633 
	C46.367920,167.018646 42.740520,167.344711 39.294998,168.118958 
M44.371189,160.526520 
	C45.956627,160.856308 47.819065,161.887955 49.078209,161.391006 
	C53.821270,159.519104 58.367970,157.149643 63.656075,154.705246 
	C67.636948,153.010986 71.725410,151.527664 75.570213,149.566620 
	C79.926552,147.344696 84.064491,144.694580 88.967262,141.939316 
	C89.642693,139.874588 90.862091,137.820175 90.901543,135.743362 
	C91.095963,125.510513 90.977554,115.271706 90.984718,104.093399 
	C90.964737,87.712708 90.944748,71.332016 90.939896,54.023319 
	C90.930618,47.038040 90.921341,40.052765 90.864403,32.375256 
	C90.168686,29.224415 88.676826,28.359592 85.338036,30.915234 
	C72.888969,36.604801 60.439903,42.294365 47.280708,48.186733 
	C46.164974,50.376965 44.095089,52.560265 44.079128,54.758480 
	C43.891968,80.536041 44.013157,106.315826 44.036179,133.013916 
	C44.110809,141.968979 44.185440,150.924057 44.371189,160.526520 
z"/>
<path fill="#67887D" opacity="1.000000" stroke="none" 
	d="
M133.043716,164.885773 
	C145.638062,173.188171 154.928986,162.889725 165.336487,159.072586 
	C168.578171,157.883636 171.610123,156.122757 175.370926,154.316895 
	C180.073898,152.063141 184.144028,150.116196 188.214172,148.169250 
	C188.618454,148.081223 189.022720,147.993179 190.022461,147.793060 
	C191.421875,147.124344 192.225845,146.567703 193.029816,146.011063 
	C193.194168,145.973465 193.358536,145.935883 194.017548,145.964325 
	C194.992828,146.351273 195.473434,146.672211 195.978088,147.032654 
	C196.002106,147.072189 196.083328,147.027893 196.083328,147.027893 
	C190.404266,149.982605 184.810165,153.117264 179.025681,155.848694 
	C170.924393,159.674118 162.399918,162.688370 154.578033,166.996552 
	C146.764526,171.300079 139.636124,171.988876 132.293732,166.163971 
	C132.556076,165.410736 132.799896,165.148254 133.043716,164.885773 
z"/>
<path fill="#67887D" opacity="1.000000" stroke="none" 
	d="
M39.252090,168.516052 
	C42.740520,167.344711 46.367920,167.018646 49.596020,165.708633 
	C57.882656,162.345810 65.992043,158.546204 74.734718,155.081299 
	C75.572327,155.509491 75.847504,155.777557 76.122681,156.045639 
	C65.771133,160.858688 55.470642,165.788269 45.016922,170.368118 
	C43.308907,171.116394 40.216766,172.961258 39.252090,168.516052 
z"/>
<path fill="#5F8277" opacity="1.000000" stroke="none" 
	d="
M76.487839,156.014084 
	C75.847504,155.777557 75.572327,155.509491 75.107933,155.020844 
	C80.357002,152.065262 85.629959,147.662491 91.283806,147.101990 
	C96.154533,146.619156 101.459305,150.514908 106.787216,153.039337 
	C107.003128,154.003677 107.004005,154.403458 107.004883,154.803223 
	C106.244949,154.531021 105.336708,154.440598 104.747185,153.959564 
	C94.793678,145.837860 85.875893,151.577423 76.487839,156.014084 
z"/>
<path fill="#386A59" opacity="1.000000" stroke="none" 
	d="
M196.054993,105.019272 
	C195.918884,94.927933 195.782776,84.836601 196.104401,74.367538 
	C196.936905,73.992683 197.311691,73.995552 197.686478,73.998421 
	C197.743164,84.024147 197.799835,94.049873 197.507599,104.551376 
	C196.790787,105.024529 196.422897,105.021896 196.054993,105.019272 
z"/>
<path fill="#6B8C81" opacity="1.000000" stroke="none" 
	d="
M195.983078,23.493378 
	C192.571777,24.612846 189.092697,25.562361 185.764282,26.889650 
	C180.067657,29.161318 174.465317,31.669447 168.260941,33.916618 
	C167.419266,33.484764 167.140030,33.214577 166.860809,32.944389 
	C174.703339,29.252504 182.519653,25.502800 190.412689,21.922232 
	C191.827042,21.280622 193.558411,21.337841 195.549713,21.510897 
	C195.965042,22.464054 195.974060,22.978716 195.983078,23.493378 
z"/>
<path fill="#65887C" opacity="1.000000" stroke="none" 
	d="
M84.886757,26.622229 
	C75.508522,30.751167 66.130287,34.880108 56.366188,38.746025 
	C55.971481,38.284798 55.962650,38.086601 55.953823,37.888401 
	C63.027252,34.265915 70.088005,30.618279 77.183861,27.040276 
	C78.772469,26.239243 80.484100,25.682215 82.757034,25.089001 
	C83.878906,25.650841 84.382828,26.136536 84.886757,26.622229 
z"/>
<path fill="#64857A" opacity="1.000000" stroke="none" 
	d="
M127.060951,40.093555 
	C127.080475,40.799519 127.099998,41.505486 126.931671,42.741337 
	C126.490463,43.528568 126.237106,43.785912 125.630486,43.997810 
	C124.011314,43.582073 122.715683,43.289440 121.487915,42.819508 
	C120.276413,42.355797 119.133568,41.712700 117.966805,40.778831 
	C117.668083,38.238209 117.363159,36.067066 117.058228,33.895920 
	C121.317520,32.543747 123.957878,34.865810 126.627686,38.290718 
	C127.015968,39.118004 127.038460,39.605782 127.060951,40.093555 
z"/>
<path fill="#618478" opacity="1.000000" stroke="none" 
	d="
M107.322174,154.973633 
	C107.004005,154.403458 107.003128,154.003677 107.001053,153.304138 
	C115.505150,156.819489 124.010445,160.634644 132.779724,164.667786 
	C132.799896,165.148254 132.556076,165.410736 132.115326,165.855286 
	C123.825417,162.406235 115.732437,158.775146 107.322174,154.973633 
z"/>
<path fill="#719186" opacity="1.000000" stroke="none" 
	d="
M117.016968,33.542809 
	C117.363159,36.067066 117.668083,38.238209 117.645569,40.617317 
	C115.948769,39.627605 115.398865,36.636826 112.452301,38.664589 
	C112.281517,38.782116 110.773071,36.955879 109.887154,36.034233 
	C111.107986,35.401413 112.328819,34.768589 113.549652,34.135765 
	C112.661102,33.065430 111.974136,31.642309 110.843239,30.996086 
	C108.258141,29.518892 105.455917,28.421675 102.537712,26.790482 
	C102.556587,25.992928 102.779640,25.575018 103.002686,25.157110 
	C107.856056,27.494217 113.981857,27.617876 117.016968,33.542809 
z"/>
<path fill="#65887C" opacity="1.000000" stroke="none" 
	d="
M166.491547,32.974083 
	C167.140030,33.214577 167.419266,33.484764 167.893204,33.974026 
	C161.303619,37.449177 154.519333,40.705250 147.353394,43.645729 
	C146.960037,42.856777 146.948349,42.383415 146.936646,41.910053 
	C146.936646,41.910053 146.958588,41.969864 147.126251,41.853745 
	C147.543472,41.564335 147.779129,41.373840 148.000885,41.166145 
	C154.041351,38.445354 160.081833,35.724567 166.491547,32.974083 
z"/>
<path fill="#597D72" opacity="1.000000" stroke="none" 
	d="
M146.555069,41.946838 
	C146.948349,42.383415 146.960037,42.856777 146.981750,43.685459 
	C144.733734,44.252232 142.313919,45.083660 140.251450,44.545551 
	C136.010284,43.439011 131.960251,41.599907 127.446251,40.077923 
	C127.038460,39.605782 127.015968,39.118004 126.985809,38.264622 
	C131.297226,39.122608 135.585785,40.474537 139.949051,41.512363 
	C141.948135,41.987850 144.094131,41.845688 146.555069,41.946838 
z"/>
<path fill="#5E7F76" opacity="1.000000" stroke="none" 
	d="
M195.833740,143.026062 
	C195.855988,141.622910 195.878235,140.219757 195.915710,137.972290 
	C195.917908,135.425308 195.904846,133.722641 195.891785,132.019974 
	C195.939651,128.331467 195.987518,124.642960 196.323639,120.497086 
	C196.985962,120.039398 197.360001,120.039070 197.734070,120.038750 
	C197.790985,128.039520 197.847900,136.040298 197.543213,144.519257 
	C196.767212,145.020538 196.352814,145.043655 195.933487,144.725494 
	C195.896942,143.931503 195.865341,143.478790 195.833740,143.026062 
z"/>
<path fill="#4A7165" opacity="1.000000" stroke="none" 
	d="
M197.753433,73.532677 
	C197.311691,73.995552 196.936905,73.992683 196.281006,73.994904 
	C196.000977,65.979553 196.002045,57.959099 196.296906,49.469383 
	C196.983627,48.995522 197.376602,48.990929 197.769562,48.986332 
	C197.786499,57.013199 197.803436,65.040070 197.753433,73.532677 
z"/>
<path fill="#64857A" opacity="1.000000" stroke="none" 
	d="
M102.680481,24.988544 
	C102.779640,25.575018 102.556587,25.992928 102.230583,26.621714 
	C101.219620,26.501234 100.221748,26.314388 99.418373,25.814783 
	C94.631996,22.838213 90.008385,22.715673 85.204330,26.509880 
	C84.382828,26.136536 83.878906,25.650841 83.123291,25.057083 
	C89.333443,19.815645 95.829987,19.921585 102.680481,24.988544 
z"/>
<path fill="#4F7166" opacity="1.000000" stroke="none" 
	d="
M195.977264,23.910742 
	C195.974060,22.978716 195.965042,22.464054 195.957245,21.568287 
	C196.635605,22.665699 197.825806,24.120626 197.895081,25.627090 
	C198.116226,30.436874 197.921173,35.265793 197.537460,40.545982 
	C196.792953,41.002605 196.397827,41.000565 196.002701,40.998524 
	C195.992279,35.441719 195.981873,29.884912 195.977264,23.910742 
z"/>
<path fill="#5F8277" opacity="1.000000" stroke="none" 
	d="
M55.572777,37.933426 
	C55.962650,38.086601 55.971481,38.284798 55.993576,38.780754 
	C51.428719,40.863995 46.850609,42.649483 42.114845,44.220146 
	C46.368710,41.996361 50.780220,39.987404 55.572777,37.933426 
z"/>
<path fill="#4F7166" opacity="1.000000" stroke="none" 
	d="
M197.813904,119.576340 
	C197.360001,120.039070 196.985962,120.039398 196.332153,120.038467 
	C196.048492,115.340553 196.044601,110.643906 196.047852,105.483261 
	C196.422897,105.021896 196.790787,105.024529 197.434875,105.015144 
	C197.771957,109.706734 197.832840,114.410332 197.813904,119.576340 
z"/>
<path fill="#386A59" opacity="1.000000" stroke="none" 
	d="
M195.919250,41.360725 
	C196.397827,41.000565 196.792953,41.002605 197.484344,41.012901 
	C197.825775,43.385094 197.870926,45.749023 197.842819,48.549644 
	C197.376602,48.990929 196.983627,48.995522 196.295944,49.000832 
	C195.946091,46.575340 195.890945,44.149132 195.919250,41.360725 
z"/>
<path fill="#4F7166" opacity="1.000000" stroke="none" 
	d="
M195.938431,145.066772 
	C196.352814,145.043655 196.767212,145.020538 197.492554,144.983536 
	C197.442551,145.624725 197.081558,146.279816 196.401947,146.981384 
	C196.083328,147.027893 196.002106,147.072189 195.960480,146.711487 
	C195.925369,145.922791 195.931900,145.494781 195.938431,145.066772 
z"/>
<path fill="#597D72" opacity="1.000000" stroke="none" 
	d="
M147.743179,41.156757 
	C147.779129,41.373840 147.543472,41.564335 147.094833,41.848469 
	C147.092331,41.688663 147.288895,41.418015 147.743179,41.156757 
z"/>
<path fill="#000000" opacity="1.000000" stroke="none" 
	d="
M109.541168,36.027020 
	C110.773071,36.955879 112.281517,38.782116 112.452301,38.664589 
	C115.398865,36.636826 115.948769,39.627605 117.639374,40.986794 
	C119.133568,41.712700 120.276413,42.355797 121.487915,42.819508 
	C122.715683,43.289440 124.011314,43.582073 125.668633,44.366180 
	C130.041687,46.796734 134.023346,48.813469 138.317688,51.133690 
	C138.755585,53.579620 138.983643,55.721756 138.990189,57.864567 
	C139.061615,81.245232 139.098419,104.626015 139.144623,128.006760 
	C139.144638,128.006760 139.029175,128.428253 138.665283,128.554626 
	C136.567047,128.065140 134.832718,127.449303 132.885162,126.544418 
	C131.279144,125.907791 129.886353,125.560196 127.161888,124.880264 
	C127.561798,127.905014 127.097298,130.860199 128.352325,132.496506 
	C130.740463,135.610123 134.422256,135.887924 138.389832,134.346893 
	C138.728027,142.961960 138.728027,151.328003 138.728027,160.056244 
	C136.408066,158.903625 134.683609,158.046875 132.631805,157.034286 
	C121.902603,152.228638 111.500748,147.578796 100.921661,142.647430 
	C99.523582,141.900330 98.302727,141.434784 97.027695,140.576630 
	C97.005211,139.129562 97.036903,138.075073 97.360870,136.840973 
	C97.456085,135.435394 97.259018,134.209473 97.011002,132.518311 
	C96.901466,109.698334 96.842873,87.343605 97.002251,64.711876 
	C100.311409,65.072289 103.121338,64.850685 105.263748,62.268456 
	C104.632759,68.484489 107.516182,72.197433 112.903824,71.884781 
	C114.102470,71.815224 115.883011,71.021355 116.256348,70.099548 
	C116.766830,68.839134 116.684769,66.836899 115.985611,65.678314 
	C113.431793,61.446339 109.755898,59.768875 104.964050,61.611309 
	C104.879425,56.324078 101.287933,55.259380 97.321472,54.581848 
	C96.885895,48.663513 96.459610,42.871460 96.348495,36.873283 
	C96.933296,35.163010 97.202919,33.658863 97.381424,32.663021 
	C100.190964,33.206841 102.577438,33.668774 104.963913,34.130703 
	C106.374336,34.760403 107.784767,35.390106 109.541168,36.027020 
M120.634987,83.037498 
	C121.063782,81.253502 122.047882,79.385124 121.792587,77.705078 
	C121.399399,75.117424 120.027275,72.322777 116.751129,73.171394 
	C115.269569,73.555168 113.297523,75.716896 113.242249,77.137917 
	C113.140739,79.747437 112.037079,83.726044 117.632782,83.922394 
	C118.433067,83.560425 119.233360,83.198463 120.634987,83.037498 
M119.025467,123.781403 
	C120.303062,126.662758 122.732628,128.336533 125.139763,126.119720 
	C126.535362,124.834480 126.855042,121.451698 126.346085,119.327370 
	C125.952614,117.685104 123.519234,116.531578 121.207977,115.037117 
	C116.139404,116.427956 115.466888,118.758759 119.025467,123.781403 
M119.216705,101.123726 
	C117.498085,102.244209 114.445961,103.244011 114.331421,104.509659 
	C114.072754,107.367821 115.182983,110.380196 115.979454,113.262665 
	C116.072327,113.598793 117.829247,113.859169 118.586815,113.565918 
	C123.928589,111.498161 124.552994,105.586960 119.216705,101.123726 
M120.966339,98.445404 
	C121.625977,97.330490 122.993073,96.080284 122.810646,95.126396 
	C122.293831,92.423920 121.142975,89.842697 120.241844,87.213715 
	C118.399117,88.094635 115.389290,88.603127 114.963860,89.936317 
	C114.152496,92.478905 114.471642,95.574844 115.117134,98.249001 
	C115.270935,98.886139 118.560051,98.766464 120.966339,98.445404 
z"/>
<path fill="#000000" opacity="1.000000" stroke="none" 
	d="
M189.990646,33.130070 
	C190.011429,34.490162 190.032227,35.850254 190.086182,38.077393 
	C190.170425,50.952610 190.221512,62.960789 190.194656,75.433792 
	C190.061356,97.239769 190.005981,118.580925 189.642670,140.086578 
	C184.563858,142.663208 179.849106,145.195206 175.009842,147.461319 
	C166.224380,151.575378 157.364807,155.531235 148.021576,159.787552 
	C148.021576,152.681671 147.939972,146.088806 148.108612,139.502350 
	C148.134232,138.501602 149.096542,137.082428 150.010376,136.624329 
	C153.719254,134.765106 153.875717,132.180130 151.849274,128.664337 
	C150.411621,128.249191 149.196777,128.127045 147.940643,127.537460 
	C147.843781,103.062874 147.788239,79.055710 147.821747,54.660980 
	C148.776337,52.897171 149.329956,51.019592 150.571274,50.247196 
	C153.305298,48.545963 156.387741,47.405319 159.325623,46.030830 
	C168.566269,41.707596 177.805817,37.382015 187.310577,32.960342 
	C188.380447,32.952248 189.185547,33.041157 189.990646,33.130070 
M160.638016,131.667801 
	C165.442459,129.433853 167.160172,125.955864 165.788040,120.961517 
	C169.871643,121.834854 171.143707,119.093796 172.390488,116.038239 
	C173.665802,112.912720 172.937927,110.652122 169.715530,108.339508 
	C163.765518,108.667427 161.736771,112.416939 164.164932,119.567047 
	C164.467834,120.045547 164.770737,120.524040 164.354233,121.475708 
	C162.198563,121.958054 160.042877,122.440399 157.142426,123.030251 
	C154.681625,124.610596 152.882401,127.009895 154.304642,129.623810 
	C155.032852,130.962173 158.001511,131.081497 160.638016,131.667801 
M165.212997,83.567963 
	C165.434723,84.344063 165.656433,85.120155 165.308731,86.279251 
	C165.483765,87.956612 165.149399,89.985489 165.989944,91.203613 
	C166.702591,92.236328 169.380554,93.181557 170.111359,92.658905 
	C171.473129,91.685020 172.237869,89.686356 172.885574,87.975800 
	C173.269211,86.962593 173.353668,85.465553 172.865494,84.572716 
	C171.950989,82.900116 170.774628,80.973816 169.199005,80.231087 
	C168.439316,79.872963 166.525223,81.963737 165.212997,83.567963 
M157.979004,75.025085 
	C157.979004,75.025085 157.946014,75.069908 158.318359,75.668633 
	C160.986557,77.659554 163.157547,76.933311 165.053802,74.476204 
	C167.226227,71.661232 169.014587,71.029579 171.426559,74.621613 
	C172.284302,75.899010 175.198822,75.795326 177.174438,76.322090 
	C177.531570,74.116554 178.554001,71.744453 178.055450,69.753151 
	C177.573502,67.828178 175.524689,66.295494 174.386017,64.868568 
	C175.607391,62.805344 176.732849,60.904163 177.970444,58.256931 
	C176.317123,53.390682 175.278809,53.254723 171.325851,55.924221 
	C169.701859,57.020927 167.084747,56.647015 164.891205,56.215122 
	C163.302383,55.165825 161.713562,54.116531 160.124756,53.067230 
	C159.146988,54.608242 157.165894,56.326591 157.400406,57.653328 
	C157.888245,60.413418 161.022156,63.434376 160.368622,65.489510 
	C159.483765,68.271988 155.873718,70.168411 157.172577,74.517525 
	C157.342316,74.831253 157.603409,75.015717 157.979004,75.025085 
M172.953461,102.200775 
	C172.725739,99.105469 174.195206,94.853806 169.484177,94.333748 
	C167.840378,94.152275 164.837982,96.525375 164.293304,98.296768 
	C163.342392,101.389351 163.126068,105.447083 167.315552,106.833282 
	C170.161621,107.774963 172.475418,106.421921 172.953461,102.200775 
z"/>
<path fill="#557E71" opacity="1.000000" stroke="none" 
	d="
M44.052982,132.095032 
	C44.013157,106.315826 43.891968,80.536041 44.079128,54.758480 
	C44.095089,52.560265 46.164974,50.376965 47.637249,48.441093 
	C48.002708,49.169476 48.011631,49.643494 47.836357,50.489571 
	C47.408943,55.468655 46.972126,60.074936 46.954548,64.682823 
	C46.854965,90.794624 46.855747,116.906807 46.649582,142.692688 
	C45.668861,138.942673 44.860924,135.518860 44.052982,132.095032 
z"/>
<path fill="#64857A" opacity="1.000000" stroke="none" 
	d="
M152.072083,128.957336 
	C153.875717,132.180130 153.719254,134.765106 150.010376,136.624329 
	C149.096542,137.082428 148.134232,138.501602 148.108612,139.502350 
	C147.939972,146.088806 148.021576,152.681671 148.021576,159.787552 
	C157.364807,155.531235 166.224380,151.575378 175.009842,147.461319 
	C179.849106,145.195206 184.563858,142.663208 189.742004,140.368378 
	C190.487640,140.974045 190.826004,141.462402 191.164368,141.950760 
	C189.682693,143.008057 188.201019,144.065353 186.054504,145.332520 
	C181.235672,147.642456 177.081665,149.742538 172.927673,151.842636 
	C165.438858,155.053726 157.895798,158.145813 150.483078,161.523865 
	C146.504822,163.336777 145.191895,161.678818 145.139755,158.041321 
	C145.051407,151.878494 144.933517,145.705200 145.221161,139.554718 
	C145.303360,137.796982 146.680801,136.070282 147.577942,134.389999 
	C148.244858,133.140915 149.095139,131.989731 150.142822,130.295120 
	C150.971954,129.515976 151.522018,129.236649 152.072083,128.957336 
z"/>
<path fill="#4A7165" opacity="1.000000" stroke="none" 
	d="
M90.924767,54.951324 
	C90.944748,71.332016 90.964737,87.712708 90.804863,104.933411 
	C90.416626,111.883110 90.334785,118.001244 89.927887,124.097687 
	C89.794220,126.100426 88.818108,128.046936 88.145569,129.555176 
	C88.037720,108.977562 88.013557,88.863914 87.982292,68.750282 
	C87.979088,66.693436 88.575760,64.145363 84.984192,64.508438 
	C84.990822,63.783669 84.992355,63.369507 85.004776,62.972347 
	C85.015663,62.989349 84.976761,62.996494 85.257118,62.911743 
	C86.033844,62.519161 86.530220,62.211330 87.115974,61.627579 
	C87.135422,60.220669 87.065483,59.089684 87.003448,57.621609 
	C87.031403,56.835537 87.051468,56.386559 87.275314,55.947186 
	C87.479095,55.956791 87.887108,55.959148 88.188034,55.846947 
	C89.300903,55.473606 90.112831,55.212467 90.924767,54.951324 
z"/>
<path fill="#46685D" opacity="1.000000" stroke="none" 
	d="
M139.436249,127.770920 
	C139.098419,104.626015 139.061615,81.245232 138.990189,57.864567 
	C138.983643,55.721756 138.755585,53.579620 138.388733,50.847794 
	C138.418823,49.523922 138.690598,48.789433 138.962357,48.054939 
	C139.637268,49.799088 140.889786,51.539948 140.899734,53.287880 
	C141.031738,76.486496 141.013550,99.686188 140.936295,122.885284 
	C140.931122,124.436539 140.148758,125.985207 139.436249,127.770920 
z"/>
<path fill="#618478" opacity="1.000000" stroke="none" 
	d="
M96.784286,64.988869 
	C96.842873,87.343605 96.901466,109.698334 96.846207,132.784546 
	C96.844437,134.684204 96.956520,135.852402 97.068596,137.020599 
	C97.036903,138.075073 97.005211,139.129562 96.679123,140.582977 
	C95.919922,140.998245 95.455132,141.014587 94.990341,141.030930 
	C94.981049,115.350899 94.971756,89.670868 95.184265,63.708290 
	C95.865479,63.946789 96.324883,64.467827 96.784286,64.988869 
z"/>
<path fill="#77988D" opacity="1.000000" stroke="none" 
	d="
M147.732697,55.048546 
	C147.788239,79.055710 147.843781,103.062874 147.595016,127.536613 
	C146.831772,128.050507 146.372849,128.097824 145.913925,128.145142 
	C145.874298,104.058685 145.834656,79.972252 146.122742,55.437180 
	C146.877869,55.008549 147.305267,55.028545 147.732697,55.048546 
z"/>
<path fill="#4F7166" opacity="1.000000" stroke="none" 
	d="
M191.329926,141.582260 
	C190.826004,141.462402 190.487640,140.974045 190.049942,140.203888 
	C190.005981,118.580925 190.061356,97.239769 190.476288,75.431564 
	C191.210922,74.971504 191.585953,74.978516 191.960999,74.985527 
	C191.985657,95.586037 192.021484,116.186546 192.011551,136.787033 
	C192.010818,138.262695 191.675323,139.738190 191.329926,141.582260 
z"/>
<path fill="#5E7F74" opacity="1.000000" stroke="none" 
	d="
M147.821732,54.660976 
	C147.305267,55.028545 146.877869,55.008549 146.128754,54.964985 
	C144.117462,51.216908 146.360336,49.241344 149.242477,47.910530 
	C161.549973,42.227619 173.916336,36.672237 186.632233,31.375793 
	C187.017441,32.139954 187.031616,32.598652 187.045792,33.057343 
	C177.805817,37.382015 168.566269,41.707596 159.325623,46.030830 
	C156.387741,47.405319 153.305298,48.545963 150.571274,50.247196 
	C149.329956,51.019592 148.776337,52.897171 147.821732,54.660976 
z"/>
<path fill="#69887E" opacity="1.000000" stroke="none" 
	d="
M48.020554,50.117512 
	C48.011631,49.643494 48.002708,49.169476 47.992313,48.339695 
	C60.439903,42.294365 72.888969,36.604801 85.855469,31.055603 
	C86.625473,31.481148 86.878044,31.766321 86.937157,32.349979 
	C82.963974,34.466965 79.225204,36.377254 75.396355,38.085640 
	C66.293770,42.147091 57.148544,46.112999 48.020554,50.117512 
z"/>
<path fill="#4F776A" opacity="1.000000" stroke="none" 
	d="
M97.002251,64.711876 
	C96.324883,64.467827 95.865479,63.946789 95.221207,63.244675 
	C96.992386,62.246822 98.948433,61.430042 101.217262,60.482647 
	C100.989594,60.093575 100.737175,59.034950 100.234329,58.898384 
	C94.190903,57.257072 93.666840,52.704830 94.023964,47.582550 
	C94.276077,43.966610 94.412994,40.342632 94.961182,36.518768 
	C95.558456,36.569996 95.795883,36.824703 96.033325,37.079407 
	C96.459610,42.871460 96.885895,48.663513 97.321472,54.581848 
	C101.287933,55.259380 104.879425,56.324078 104.974823,61.566101 
	C104.940918,61.903030 105.030319,61.877567 105.030319,61.877567 
	C103.121338,64.850685 100.311409,65.072289 97.002251,64.711876 
z"/>
<path fill="#64857A" opacity="1.000000" stroke="none" 
	d="
M101.098892,142.928955 
	C111.500748,147.578796 121.902603,152.228638 132.638000,157.390747 
	C132.989487,158.382141 133.007446,158.861282 133.025421,159.340408 
	C124.513062,155.692917 115.987305,152.076202 107.496078,148.380188 
	C104.765961,147.191818 102.126900,145.794250 99.441650,144.092209 
	C99.991043,143.437653 100.544968,143.183304 101.098892,142.928955 
z"/>
<path fill="#5F8277" opacity="1.000000" stroke="none" 
	d="
M88.297386,142.230621 
	C84.064491,144.694580 79.926552,147.344696 75.570213,149.566620 
	C71.725410,151.527664 67.636948,153.010986 63.318527,154.484711 
	C62.976688,153.795395 62.972393,153.326630 63.129936,152.545486 
	C71.518456,148.463654 79.745140,144.694199 88.042496,141.253876 
	C88.174576,141.798874 88.235977,142.014755 88.297386,142.230621 
z"/>
<path fill="#4F776A" opacity="1.000000" stroke="none" 
	d="
M133.204544,159.594711 
	C133.007446,158.861282 132.989487,158.382141 132.965332,157.546570 
	C134.683609,158.046875 136.408066,158.903625 138.728027,160.056244 
	C138.728027,151.328003 138.728027,142.961960 138.579956,134.157379 
	C138.898376,133.457016 139.364853,133.195206 139.831345,132.933380 
	C140.360123,142.574860 140.888885,152.216339 141.417664,161.857803 
	C140.846985,162.166412 140.276291,162.475006 139.705612,162.783615 
	C137.598297,161.805420 135.490982,160.827225 133.204544,159.594711 
z"/>
<path fill="#5A7D74" opacity="1.000000" stroke="none" 
	d="
M191.968384,74.518250 
	C191.585953,74.978516 191.210922,74.971504 190.554230,74.966736 
	C190.221512,62.960789 190.170425,50.952610 190.178802,38.476875 
	C190.238281,38.009315 190.615784,38.016365 191.041962,38.012123 
	C191.468155,38.007881 191.943604,38.028721 191.943604,38.028721 
	C191.954330,50.036137 191.965042,62.043556 191.968384,74.518250 
z"/>
<path fill="#5A7D74" opacity="1.000000" stroke="none" 
	d="
M90.932327,54.487320 
	C90.112831,55.212467 89.300903,55.473606 88.240784,55.383884 
	C88.052567,47.687763 88.112541,40.342506 88.515945,33.000450 
	C89.543602,33.024929 90.227829,33.046207 90.912064,33.067486 
	C90.921341,40.052765 90.930618,47.038040 90.932327,54.487320 
z"/>
<path fill="#6C9085" opacity="1.000000" stroke="none" 
	d="
M44.044579,132.554474 
	C44.860924,135.518860 45.668861,138.942673 46.702763,143.155716 
	C46.903275,148.628006 46.877827,153.311081 46.632805,158.151459 
	C45.695511,158.832199 44.977791,159.355667 44.260071,159.879120 
	C44.185440,150.924057 44.110809,141.968979 44.044579,132.554474 
z"/>
<path fill="#4D7A6B" opacity="1.000000" stroke="none" 
	d="
M88.632324,142.084961 
	C88.235977,142.014755 88.174576,141.798874 88.050064,140.818481 
	C88.047287,138.022980 88.107620,135.991974 88.265732,133.782471 
	C88.320999,133.083969 88.278481,132.563980 88.192963,131.707535 
	C88.175720,130.920441 88.201477,130.469803 88.227234,130.019165 
	C88.818108,128.046936 89.794220,126.100426 89.927887,124.097687 
	C90.334785,118.001244 90.416626,111.883110 90.797272,105.404205 
	C90.977554,115.271706 91.095963,125.510513 90.901543,135.743362 
	C90.862091,137.820175 89.642693,139.874588 88.632324,142.084961 
z"/>
<path fill="#386A59" opacity="1.000000" stroke="none" 
	d="
M173.128113,152.118195 
	C177.081665,149.742538 181.235672,147.642456 185.726501,145.473938 
	C186.617432,146.200638 187.171539,146.995804 187.969910,147.980103 
	C184.144028,150.116196 180.073898,152.063141 175.678711,154.125183 
	C174.678635,153.624756 174.003586,153.009247 173.128113,152.118195 
z"/>
<path fill="#6B8C81" opacity="1.000000" stroke="none" 
	d="
M44.315628,160.202820 
	C44.977791,159.355667 45.695511,158.832199 46.710304,158.463837 
	C47.580715,158.688538 48.245129,158.982834 48.713348,158.793060 
	C53.483250,156.859848 58.221207,154.847824 62.968102,152.857864 
	C62.972393,153.326630 62.976688,153.795395 62.984592,154.615341 
	C58.367970,157.149643 53.821270,159.519104 49.078209,161.391006 
	C47.819065,161.887955 45.956627,160.856308 44.315628,160.202820 
z"/>
<path fill="#5E7F76" opacity="1.000000" stroke="none" 
	d="
M139.851349,132.732208 
	C139.364853,133.195206 138.898376,133.457016 138.241760,133.908356 
	C134.422256,135.887924 130.740463,135.610123 128.352325,132.496506 
	C127.097298,130.860199 127.561798,127.905014 127.161888,124.880264 
	C129.886353,125.560196 131.279144,125.907791 132.760223,126.792221 
	C131.878616,128.490082 130.908722,129.651108 130.017761,130.717621 
	C133.611572,135.328812 136.101334,131.237228 138.911591,130.064423 
	C138.911591,130.064423 138.961014,130.034180 139.042542,130.301605 
	C139.388657,131.089142 139.653275,131.609253 139.917892,132.129364 
	C139.917892,132.129364 139.871368,132.531021 139.851349,132.732208 
z"/>
<path fill="#557E71" opacity="1.000000" stroke="none" 
	d="
M96.348495,36.873283 
	C95.795883,36.824703 95.558456,36.569996 95.125534,36.139732 
	C95.484398,33.852798 96.038773,31.741423 96.593147,29.630049 
	C99.300331,30.907578 102.007523,32.185104 104.839310,33.796669 
	C102.577438,33.668774 100.190964,33.206841 97.381424,32.663021 
	C97.202919,33.658863 96.933296,35.163010 96.348495,36.873283 
z"/>
<path fill="#4F776A" opacity="1.000000" stroke="none" 
	d="
M138.934250,129.764252 
	C136.101334,131.237228 133.611572,135.328812 130.017761,130.717621 
	C130.908722,129.651108 131.878616,128.490082 132.973450,127.081253 
	C134.832718,127.449303 136.567047,128.065140 138.640686,128.771729 
	C138.972305,129.063019 138.964615,129.263550 138.934250,129.764252 
z"/>
<path fill="#5E7F74" opacity="1.000000" stroke="none" 
	d="
M138.611511,47.950096 
	C138.690598,48.789433 138.418823,49.523922 138.076019,50.544308 
	C134.023346,48.813469 130.041687,46.796734 126.021896,44.411629 
	C126.237106,43.785912 126.490463,43.528568 126.951591,43.093956 
	C130.859802,44.559540 134.560242,46.202393 138.611511,47.950096 
z"/>
<path fill="#4F776A" opacity="1.000000" stroke="none" 
	d="
M187.310577,32.960342 
	C187.031616,32.598652 187.017441,32.139954 187.002151,31.336773 
	C188.436417,30.829481 189.871765,30.666676 191.307129,30.503872 
	C190.996185,31.447206 190.685242,32.390541 190.182465,33.231972 
	C189.185547,33.041157 188.380447,32.952248 187.310577,32.960342 
z"/>
<path fill="#4A7165" opacity="1.000000" stroke="none" 
	d="
M90.888229,32.721371 
	C90.227829,33.046207 89.543602,33.024929 88.392151,32.790287 
	C87.740974,32.279640 87.476204,32.104496 87.130623,32.051495 
	C86.878044,31.766321 86.625473,31.481148 86.220001,30.950241 
	C88.676826,28.359592 90.168686,29.224415 90.888229,32.721371 
z"/>
<path fill="#4F776A" opacity="1.000000" stroke="none" 
	d="
M100.921661,142.647430 
	C100.544968,143.183304 99.991043,143.437653 99.181664,143.862274 
	C97.686928,143.241837 96.447655,142.451126 95.099350,141.345673 
	C95.455132,141.014587 95.919922,140.998245 96.733292,140.975571 
	C98.302727,141.434784 99.523582,141.900330 100.921661,142.647430 
z"/>
<path fill="#386A59" opacity="1.000000" stroke="none" 
	d="
M195.625305,132.209839 
	C195.904846,133.722641 195.917908,135.425308 195.896362,137.551514 
	C195.694107,136.116608 195.526474,134.258163 195.625305,132.209839 
z"/>
<path fill="#5E7F74" opacity="1.000000" stroke="none" 
	d="
M146.073441,128.434723 
	C146.372849,128.097824 146.831772,128.050507 147.636322,128.004028 
	C149.196777,128.127045 150.411621,128.249191 151.849274,128.664337 
	C151.522018,129.236649 150.971954,129.515976 150.142426,129.932678 
	C148.652954,129.621475 147.442963,129.172882 146.073441,128.434723 
z"/>
<path fill="#386A59" opacity="1.000000" stroke="none" 
	d="
M195.933487,144.725494 
	C195.931900,145.494781 195.925369,145.922791 195.936447,146.671967 
	C195.473434,146.672211 194.992828,146.351273 194.258759,145.888351 
	C194.452942,144.938431 194.900543,144.130508 195.590942,143.174316 
	C195.865341,143.478790 195.896942,143.931503 195.933487,144.725494 
z"/>
<path fill="#386A59" opacity="1.000000" stroke="none" 
	d="
M192.724548,146.056061 
	C192.225845,146.567703 191.421875,147.124344 190.323456,147.717316 
	C190.825760,147.202774 191.622528,146.651917 192.724548,146.056061 
z"/>
<path fill="#46685D" opacity="1.000000" stroke="none" 
	d="
M139.850189,131.843506 
	C139.653275,131.609253 139.388657,131.089142 139.064209,130.282379 
	C139.263748,130.516357 139.523117,131.037003 139.850189,131.843506 
z"/>
<path fill="#4F776A" opacity="1.000000" stroke="none" 
	d="
M191.837509,37.948845 
	C191.943604,38.028721 191.468155,38.007881 191.230316,37.999119 
	C191.219925,37.805161 191.466232,37.764698 191.837509,37.948845 
z"/>
<path fill="#5A7D74" opacity="1.000000" stroke="none" 
	d="
M119.578979,101.301346 
	C124.552994,105.586960 123.928589,111.498161 118.586815,113.565918 
	C117.829247,113.859169 116.072327,113.598793 115.979454,113.262665 
	C115.182983,110.380196 114.072754,107.367821 114.331421,104.509659 
	C114.445961,103.244011 117.498085,102.244209 119.578979,101.301346 
z"/>
<path fill="#69887E" opacity="1.000000" stroke="none" 
	d="
M104.930145,61.948238 
	C109.755898,59.768875 113.431793,61.446339 115.985611,65.678314 
	C116.684769,66.836899 116.766830,68.839134 116.256348,70.099548 
	C115.883011,71.021355 114.102470,71.815224 112.903824,71.884781 
	C107.516182,72.197433 104.632759,68.484489 105.263748,62.268456 
	C105.030319,61.877567 104.940918,61.903030 104.930145,61.948238 
M108.380646,66.148399 
	C109.871880,67.098640 111.363113,68.048882 112.854340,68.999123 
	C112.615700,67.586906 112.813354,65.833092 112.037186,64.841728 
	C110.842827,63.316269 109.006577,62.453537 108.380646,66.148399 
z"/>
<path fill="#517A6E" opacity="1.000000" stroke="none" 
	d="
M121.992752,115.160767 
	C123.519234,116.531578 125.952614,117.685104 126.346085,119.327370 
	C126.855042,121.451698 126.535362,124.834480 125.139763,126.119720 
	C122.732628,128.336533 120.303062,126.662758 119.097015,123.168289 
	C120.109955,120.090370 121.051353,117.625572 121.992752,115.160767 
z"/>
<path fill="#5E7F76" opacity="1.000000" stroke="none" 
	d="
M120.686699,98.720146 
	C118.560051,98.766464 115.270935,98.886139 115.117134,98.249001 
	C114.471642,95.574844 114.152496,92.478905 114.963860,89.936317 
	C115.389290,88.603127 118.399117,88.094635 120.241844,87.213715 
	C121.142975,89.842697 122.293831,92.423920 122.810646,95.126396 
	C122.993073,96.080284 121.625977,97.330490 120.686699,98.720146 
M116.726418,95.343834 
	C117.650124,95.276299 118.573822,95.208763 119.497528,95.141228 
	C119.367859,93.616928 119.238190,92.092628 119.108521,90.568336 
	C118.510452,90.547058 117.912376,90.525787 117.314308,90.504517 
	C117.027168,91.917236 116.740028,93.329956 116.726418,95.343834 
z"/>
<path fill="#597D72" opacity="1.000000" stroke="none" 
	d="
M116.964676,83.850410 
	C112.037079,83.726044 113.140739,79.747437 113.242249,77.137917 
	C113.297523,75.716896 115.269569,73.555168 116.751129,73.171394 
	C120.027275,72.322777 121.399399,75.117424 121.792587,77.705078 
	C122.047882,79.385124 121.063782,81.253502 120.307373,82.559128 
	C119.164375,80.102470 118.348984,78.124191 117.533592,76.145912 
	C116.914177,76.391472 116.294762,76.637032 115.675354,76.882584 
	C116.105125,79.205193 116.534904,81.527802 116.964676,83.850410 
z"/>
<path fill="#386C5B" opacity="1.000000" stroke="none" 
	d="
M117.298729,83.886398 
	C116.534904,81.527802 116.105125,79.205193 115.675354,76.882584 
	C116.294762,76.637032 116.914177,76.391472 117.533592,76.145912 
	C118.348984,78.124191 119.164375,80.102470 120.006714,82.458618 
	C119.233360,83.198463 118.433067,83.560425 117.298729,83.886398 
z"/>
<path fill="#5E7F76" opacity="1.000000" stroke="none" 
	d="
M121.600365,115.098938 
	C121.051353,117.625572 120.109955,120.090370 119.031006,122.806961 
	C115.466888,118.758759 116.139404,116.427956 121.600365,115.098938 
z"/>
<path fill="#4F776A" opacity="1.000000" stroke="none" 
	d="
M97.360870,136.840973 
	C96.956520,135.852402 96.844437,134.684204 96.897156,133.249771 
	C97.259018,134.209473 97.456085,135.435394 97.360870,136.840973 
z"/>
<path fill="#386C5B" opacity="1.000000" stroke="none" 
	d="
M164.919373,56.942047 
	C167.084747,56.647015 169.701859,57.020927 171.325851,55.924221 
	C175.278809,53.254723 176.317123,53.390682 177.587860,58.731903 
	C167.883270,62.806679 175.023285,68.370544 176.584366,73.664635 
	C174.880814,73.229568 174.185913,73.221504 173.694763,72.901093 
	C167.046936,68.564163 167.053940,68.553436 161.682098,73.908470 
	C161.030838,72.919266 160.165497,71.547447 160.399139,71.323822 
	C165.494675,66.446594 162.696732,61.725170 160.309952,56.956051 
	C160.229462,56.795235 160.591690,56.412857 160.924255,55.817390 
	C162.201218,56.176865 163.560303,56.559456 164.919373,56.942047 
z"/>
<path fill="#597D72" opacity="1.000000" stroke="none" 
	d="
M161.979874,74.060631 
	C167.053940,68.553436 167.046936,68.564163 173.694763,72.901093 
	C174.185913,73.221504 174.880814,73.229568 176.584366,73.664635 
	C175.023285,68.370544 167.883270,62.806679 177.531799,59.104935 
	C176.732849,60.904163 175.607391,62.805344 174.386017,64.868568 
	C175.524689,66.295494 177.573502,67.828178 178.055450,69.753151 
	C178.554001,71.744453 177.531570,74.116554 177.174438,76.322090 
	C175.198822,75.795326 172.284302,75.899010 171.426559,74.621613 
	C169.014587,71.029579 167.226227,71.661232 165.053802,74.476204 
	C163.157547,76.933311 160.986557,77.659554 158.483429,75.340538 
	C159.758957,74.695168 160.869415,74.377899 161.979874,74.060631 
z"/>
<path fill="#66847C" opacity="1.000000" stroke="none" 
	d="
M172.946808,102.628006 
	C172.475418,106.421921 170.161621,107.774963 167.315552,106.833282 
	C163.126068,105.447083 163.342392,101.389351 164.293304,98.296768 
	C164.837982,96.525375 167.840378,94.152275 169.484177,94.333748 
	C174.195206,94.853806 172.725739,99.105469 172.946808,102.628006 
z"/>
<path fill="#618478" opacity="1.000000" stroke="none" 
	d="
M161.682098,73.908470 
	C160.869415,74.377899 159.758957,74.695168 158.297256,75.041176 
	C157.946014,75.069908 157.979004,75.025085 157.857056,74.861374 
	C157.569366,74.460167 157.387634,74.235603 157.189896,74.023987 
	C155.873718,70.168411 159.483765,68.271988 160.368622,65.489510 
	C161.022156,63.434376 157.888245,60.413418 157.400406,57.653328 
	C157.165894,56.326591 159.146988,54.608242 160.124756,53.067230 
	C161.713562,54.116531 163.302383,55.165825 164.905289,56.578583 
	C163.560303,56.559456 162.201218,56.176865 160.924255,55.817390 
	C160.591690,56.412857 160.229462,56.795235 160.309952,56.956051 
	C162.696732,61.725170 165.494675,66.446594 160.399139,71.323822 
	C160.165497,71.547447 161.030838,72.919266 161.682098,73.908470 
z"/>
<path fill="#628078" opacity="1.000000" stroke="none" 
	d="
M165.133865,82.945633 
	C166.525223,81.963737 168.439316,79.872963 169.199005,80.231087 
	C170.774628,80.973816 171.950989,82.900116 172.865494,84.572716 
	C173.353668,85.465553 173.269211,86.962593 172.885574,87.975800 
	C172.237869,89.686356 171.473129,91.685020 170.111359,92.658905 
	C169.380554,93.181557 166.702591,92.236328 165.989944,91.203613 
	C165.149399,89.985489 165.483765,87.956612 165.806168,86.355042 
	C167.060150,87.523178 167.816696,88.615517 168.734680,89.940971 
	C172.193924,84.722923 171.319839,83.349915 165.133865,82.945633 
z"/>
<path fill="#5E7F76" opacity="1.000000" stroke="none" 
	d="
M170.081223,108.982941 
	C172.937927,110.652122 173.665802,112.912720 172.390488,116.038239 
	C171.143707,119.093796 169.871643,121.834854 165.393890,120.970215 
	C164.999756,120.978905 165.073639,121.002541 165.073639,121.002541 
	C164.770737,120.524040 164.467834,120.045547 164.319427,119.209641 
	C164.981476,118.570259 165.489029,118.288292 166.364075,117.958580 
	C170.969116,115.376312 171.057205,113.357658 167.218872,110.795410 
	C168.298264,110.022186 169.189743,109.502563 170.081223,108.982941 
z"/>
<path fill="#597D72" opacity="1.000000" stroke="none" 
	d="
M164.987671,120.942047 
	C167.160172,125.955864 165.442459,129.433853 160.298172,131.383041 
	C159.984650,130.663437 160.010971,130.228592 160.215210,129.535751 
	C161.424561,127.393921 165.034653,125.295700 159.719986,123.742676 
	C158.957230,123.350777 158.422226,123.136757 157.887207,122.922745 
	C160.042877,122.440399 162.198563,121.958054 164.713928,121.239120 
	C165.073639,121.002541 164.999756,120.978905 164.987671,120.942047 
z"/>
<path fill="#719186" opacity="1.000000" stroke="none" 
	d="
M157.514816,122.976501 
	C158.422226,123.136757 158.957230,123.350777 159.441864,123.945435 
	C157.643265,126.380539 154.684555,128.577988 160.037292,129.793747 
	C160.010971,130.228592 159.984650,130.663437 159.957962,131.425018 
	C158.001511,131.081497 155.032852,130.962173 154.304642,129.623810 
	C152.882401,127.009895 154.681625,124.610596 157.514816,122.976501 
z"/>
<path fill="#3A7060" opacity="1.000000" stroke="none" 
	d="
M165.173431,83.256798 
	C171.319839,83.349915 172.193924,84.722923 168.734680,89.940971 
	C167.816696,88.615517 167.060150,87.523178 166.090881,86.163544 
	C165.656433,85.120155 165.434723,84.344063 165.173431,83.256798 
z"/>
<path fill="#6E8680" opacity="1.000000" stroke="none" 
	d="
M165.996582,118.006317 
	C165.489029,118.288292 164.981476,118.570259 164.198776,118.948120 
	C161.736771,112.416939 163.765518,108.667427 169.898376,108.661224 
	C169.189743,109.502563 168.298264,110.022186 167.088654,111.112534 
	C166.512558,113.790947 166.254562,115.898636 165.996582,118.006317 
z"/>
<path fill="#597D72" opacity="1.000000" stroke="none" 
	d="
M157.181244,74.270752 
	C157.387634,74.235603 157.569366,74.460167 157.845474,74.884277 
	C157.603409,75.015717 157.342316,74.831253 157.181244,74.270752 
z"/>
<path fill="#000000" opacity="1.000000" stroke="none" 
	d="
M86.937157,32.349979 
	C87.476204,32.104496 87.740974,32.279640 88.048729,32.787086 
	C88.112541,40.342506 88.052567,47.687763 87.939850,55.496086 
	C87.887108,55.959148 87.479095,55.956791 87.262527,55.962914 
	C87.045959,55.969032 87.063370,55.939228 86.910889,55.653755 
	C85.815506,55.560978 84.872597,55.753677 83.555496,55.992363 
	C81.739426,56.869678 79.734100,57.375652 79.013535,58.623501 
	C78.287437,59.880947 78.195129,62.834286 78.961708,63.347771 
	C80.573029,64.427101 82.928871,64.394958 84.979103,64.819046 
	C88.575760,64.145363 87.979088,66.693436 87.982292,68.750282 
	C88.013557,88.863914 88.037720,108.977562 88.145569,129.555176 
	C88.201477,130.469803 88.175720,130.920441 88.120499,132.022568 
	C88.116684,133.103027 88.142319,133.532013 88.167953,133.960983 
	C88.107620,135.991974 88.047287,138.022980 87.979385,140.489349 
	C79.745140,144.694199 71.518456,148.463654 63.129936,152.545486 
	C58.221207,154.847824 53.483250,156.859848 48.713348,158.793060 
	C48.245129,158.982834 47.580715,158.688538 46.929874,158.306549 
	C46.877827,153.311081 46.903275,148.628006 46.875542,143.481903 
	C46.855747,116.906807 46.854965,90.794624 46.954548,64.682823 
	C46.972126,60.074936 47.408943,55.468655 47.836353,50.489571 
	C57.148544,46.112999 66.293770,42.147091 75.396355,38.085640 
	C79.225204,36.377254 82.963974,34.466965 86.937157,32.349979 
M71.950737,112.192696 
	C71.601768,108.731094 72.473557,104.513344 66.248375,104.193459 
	C61.687569,106.443344 62.729301,110.579491 63.329182,114.189011 
	C63.514297,115.302849 65.850647,116.500496 67.359482,116.766472 
	C68.111938,116.899117 69.219688,115.016174 70.594620,114.021271 
	C70.594620,114.021271 71.001732,113.887428 71.507805,113.878273 
	C71.620544,113.589394 71.733292,113.300514 71.950737,112.192696 
M70.769455,120.512421 
	C70.631126,120.228844 70.413864,120.141640 69.273842,120.121719 
	C68.126251,120.106598 66.380875,119.616585 65.944206,120.166237 
	C64.682228,121.754784 63.037220,123.879044 63.255322,125.572372 
	C63.483463,127.343681 65.701439,128.858688 67.049629,130.485733 
	C68.411964,129.322586 69.774300,128.159424 71.696815,126.631271 
	C71.488777,125.418556 71.280746,124.205849 70.945076,122.297241 
	C70.877190,121.830643 70.809303,121.364044 70.769455,120.512421 
M70.881569,92.240387 
	C69.100174,91.586533 66.948761,89.956009 65.607582,90.464119 
	C61.766949,91.919159 62.825989,95.794220 63.168900,98.722466 
	C63.341629,100.197426 65.746582,102.766632 66.499092,102.554970 
	C68.479515,101.997887 70.107758,100.188766 71.982628,98.108391 
	C71.666519,96.398766 71.350410,94.689133 70.881569,92.240387 
M63.368710,79.175934 
	C62.415710,87.220276 63.271584,88.267532 70.682632,87.629799 
	C71.147469,85.715660 72.090195,83.658539 72.005737,81.644493 
	C71.928421,79.800812 71.204964,77.008553 69.935455,76.416908 
	C67.982056,75.506531 64.876564,74.948799 63.368710,79.175934 
M68.667923,73.843529 
	C73.507713,75.688576 77.685638,72.831467 77.986435,67.470970 
	C78.164009,64.306404 75.717316,62.321499 72.706886,63.187881 
	C68.700996,64.340744 66.530991,69.137825 68.667923,73.843529 
z"/>
<path fill="#5F8277" opacity="1.000000" stroke="none" 
	d="
M84.984192,64.508438 
	C82.928871,64.394958 80.573029,64.427101 78.961708,63.347771 
	C78.195129,62.834286 78.287437,59.880947 79.013535,58.623501 
	C79.734100,57.375652 81.739426,56.869678 83.946381,56.011589 
	C85.495430,55.969631 86.279404,55.954430 87.063370,55.939228 
	C87.063370,55.939228 87.045959,55.969032 87.058746,55.953308 
	C87.051468,56.386559 87.031403,56.835537 86.630341,57.641693 
	C84.343819,58.809353 82.438301,59.619839 80.532776,60.430325 
	C80.655617,60.986046 80.778465,61.541763 80.901306,62.097485 
	C82.265503,62.383438 83.629692,62.669392 84.993889,62.955345 
	C84.992355,63.369507 84.990822,63.783669 84.984192,64.508438 
z"/>
<path fill="#386C5B" opacity="1.000000" stroke="none" 
	d="
M85.004776,62.972351 
	C83.629692,62.669392 82.265503,62.383438 80.901306,62.097485 
	C80.778465,61.541763 80.655617,60.986046 80.532776,60.430325 
	C82.438301,59.619839 84.343819,58.809353 86.622452,57.978783 
	C87.065483,59.089684 87.135422,60.220669 86.834137,61.717407 
	C85.967537,62.387611 85.472153,62.692055 84.976761,62.996498 
	C84.976761,62.996494 85.015663,62.989349 85.004776,62.972351 
z"/>
<path fill="#5F8277" opacity="1.000000" stroke="none" 
	d="
M85.257118,62.911743 
	C85.472153,62.692055 85.967537,62.387611 86.744759,61.993332 
	C86.530220,62.211330 86.033844,62.519161 85.257118,62.911743 
z"/>
<path fill="#4A7165" opacity="1.000000" stroke="none" 
	d="
M88.265732,133.782471 
	C88.142319,133.532013 88.116684,133.103027 88.163498,132.359024 
	C88.278481,132.563980 88.320999,133.083969 88.265732,133.782471 
z"/>
<path fill="#3A7060" opacity="1.000000" stroke="none" 
	d="
M108.308495,65.824860 
	C109.006577,62.453537 110.842827,63.316269 112.037186,64.841728 
	C112.813354,65.833092 112.615700,67.586906 112.854340,68.999123 
	C111.363113,68.048882 109.871880,67.098640 108.308495,65.824860 
z"/>
<path fill="#3A7060" opacity="1.000000" stroke="none" 
	d="
M116.589653,95.043259 
	C116.740028,93.329956 117.027168,91.917236 117.314308,90.504517 
	C117.912376,90.525787 118.510452,90.547058 119.108521,90.568336 
	C119.238190,92.092628 119.367859,93.616928 119.497528,95.141235 
	C118.573822,95.208763 117.650124,95.276299 116.589653,95.043259 
z"/>
<path fill="#3A7060" opacity="1.000000" stroke="none" 
	d="
M166.364075,117.958572 
	C166.254562,115.898636 166.512558,113.790947 166.900757,111.366135 
	C171.057205,113.357658 170.969116,115.376312 166.364075,117.958572 
z"/>
<path fill="#386C5B" opacity="1.000000" stroke="none" 
	d="
M160.215210,129.535751 
	C154.684555,128.577988 157.643265,126.380539 159.669617,124.123306 
	C165.034653,125.295700 161.424561,127.393921 160.215210,129.535751 
z"/>
<path fill="#617E77" opacity="1.000000" stroke="none" 
	d="
M63.619415,78.844482 
	C64.876564,74.948799 67.982056,75.506531 69.935455,76.416908 
	C71.204964,77.008553 71.928421,79.800812 72.005737,81.644493 
	C72.090195,83.658539 71.147469,85.715660 70.682632,87.629799 
	C63.271584,88.267532 62.415710,87.220276 63.619415,78.844482 
M66.556610,83.725906 
	C67.642250,83.241417 68.727882,82.756927 69.813522,82.272438 
	C69.281822,81.204674 68.750114,80.136917 68.218407,79.069153 
	C67.565308,80.411568 66.912209,81.753983 66.556610,83.725906 
z"/>
<path fill="#628078" opacity="1.000000" stroke="none" 
	d="
M68.404083,73.563301 
	C66.530991,69.137825 68.700996,64.340744 72.706886,63.187881 
	C75.717316,62.321499 78.164009,64.306404 77.986435,67.470970 
	C77.685638,72.831467 73.507713,75.688576 68.404083,73.563301 
M73.582611,70.791260 
	C74.202560,69.249977 74.822510,67.708694 75.442459,66.167419 
	C74.852501,65.844017 74.262543,65.520622 73.672585,65.197227 
	C72.552818,66.594658 70.921173,67.837608 70.441154,69.428123 
	C69.823036,71.476196 70.807487,72.757080 73.582611,70.791260 
z"/>
<path fill="#617E77" opacity="1.000000" stroke="none" 
	d="
M71.876266,98.878319 
	C70.107758,100.188766 68.479515,101.997887 66.499092,102.554970 
	C65.746582,102.766632 63.341629,100.197426 63.168900,98.722466 
	C62.825989,95.794220 61.766949,91.919159 65.607582,90.464119 
	C66.948761,89.956009 69.100174,91.586533 70.774567,92.781288 
	C67.643822,93.368973 64.727249,93.953186 66.436111,97.831520 
	C66.859688,98.792831 69.990097,98.561455 71.876266,98.878319 
z"/>
<path fill="#5E7F74" opacity="1.000000" stroke="none" 
	d="
M71.136635,126.996269 
	C69.774300,128.159424 68.411964,129.322586 67.049629,130.485733 
	C65.701439,128.858688 63.483463,127.343681 63.255322,125.572372 
	C63.037220,123.879044 64.682228,121.754784 65.944206,120.166237 
	C66.380875,119.616585 68.126251,120.106598 69.775673,120.314880 
	C70.404961,120.670212 70.559601,120.800018 70.741417,120.897446 
	C70.809303,121.364044 70.877190,121.830643 70.792953,122.764954 
	C69.207924,123.809708 67.775024,124.386734 66.342125,124.963760 
	C67.779999,125.614960 69.216431,126.269402 70.658012,126.912285 
	C70.801506,126.976280 70.976341,126.969955 71.136635,126.996269 
z"/>
<path fill="#456F64" opacity="1.000000" stroke="none" 
	d="
M71.001732,113.887428 
	C71.001732,113.887428 70.594620,114.021271 70.045479,114.071251 
	C65.793777,114.981216 65.092270,112.912651 65.584137,109.946877 
	C65.905067,108.011810 66.525406,106.126404 67.011620,104.218758 
	C72.473557,104.513344 71.601768,108.731094 71.725464,112.715195 
	C71.283653,113.415619 71.117500,113.632195 71.001732,113.887428 
M70.502701,111.533371 
	C70.502701,111.533371 70.492744,111.495621 70.502701,111.533371 
z"/>
<path fill="#6E8680" opacity="1.000000" stroke="none" 
	d="
M66.629997,104.206108 
	C66.525406,106.126404 65.905067,108.011810 65.584137,109.946877 
	C65.092270,112.912651 65.793777,114.981216 69.831535,114.083092 
	C69.219688,115.016174 68.111938,116.899117 67.359482,116.766472 
	C65.850647,116.500496 63.514297,115.302849 63.329182,114.189011 
	C62.729301,110.579491 61.687569,106.443344 66.629997,104.206108 
z"/>
<path fill="#3E6D5E" opacity="1.000000" stroke="none" 
	d="
M71.929443,98.493355 
	C69.990097,98.561455 66.859688,98.792831 66.436111,97.831520 
	C64.727249,93.953186 67.643822,93.368973 70.850937,93.150848 
	C71.350410,94.689133 71.666519,96.398766 71.929443,98.493355 
z"/>
<path fill="#3E6D5E" opacity="1.000000" stroke="none" 
	d="
M71.416725,126.813766 
	C70.976341,126.969955 70.801506,126.976280 70.658012,126.912285 
	C69.216431,126.269402 67.779999,125.614960 66.342125,124.963760 
	C67.775024,124.386734 69.207924,123.809708 70.856766,123.112900 
	C71.280746,124.205849 71.488777,125.418556 71.416725,126.813766 
z"/>
<path fill="#4A7165" opacity="1.000000" stroke="none" 
	d="
M86.910889,55.653755 
	C86.279404,55.954430 85.495430,55.969631 84.320580,55.965603 
	C84.872597,55.753677 85.815506,55.560978 86.910889,55.653755 
z"/>
<path fill="#3E6D5E" opacity="1.000000" stroke="none" 
	d="
M70.755432,120.704933 
	C70.559601,120.800018 70.404961,120.670212 70.197586,120.379425 
	C70.413864,120.141640 70.631126,120.228844 70.755432,120.704933 
z"/>
<path fill="#6E8680" opacity="1.000000" stroke="none" 
	d="
M71.254768,113.882851 
	C71.117500,113.632195 71.283653,113.415619 71.673119,113.124664 
	C71.733292,113.300514 71.620544,113.589394 71.254768,113.882851 
z"/>
<path fill="#386C5B" opacity="1.000000" stroke="none" 
	d="
M66.407852,83.411148 
	C66.912209,81.753983 67.565308,80.411568 68.218414,79.069153 
	C68.750114,80.136917 69.281822,81.204674 69.813522,82.272438 
	C68.727882,82.756927 67.642250,83.241417 66.407852,83.411148 
z"/>
<path fill="#3E6D5E" opacity="1.000000" stroke="none" 
	d="
M73.362564,71.009804 
	C70.807487,72.757080 69.823036,71.476196 70.441154,69.428123 
	C70.921173,67.837608 72.552818,66.594658 73.672585,65.197227 
	C74.262543,65.520622 74.852501,65.844017 75.442459,66.167419 
	C74.822510,67.708694 74.202560,69.249977 73.362564,71.009804 
z"/>
<path fill="#6E8680" opacity="1.000000" stroke="none" 
	d="
M70.497726,111.514496 
	C70.492744,111.495621 70.502701,111.533371 70.497726,111.514496 
z"/>
</svg>